<svg width="190" height="90" viewBox="0 0 190 90" fill="none" xmlns="http://www.w3.org/2000/svg">
<g id="icon-baylor-college">
<rect width="190" height="90" rx="12" fill="#35DEED"/>
<path id="Vector" fill-rule="evenodd" clip-rule="evenodd" d="M92.1498 27.0638C92.1498 26.4962 92.238 25.575 91.5965 25.3357V25.298H94.5766C96.2362 25.298 97.2048 26.0041 97.2048 27.1274C97.2048 27.9725 96.6633 28.4523 95.9477 28.7676C97.0791 29.0069 97.9962 29.7642 97.9962 31.0001C97.9962 31.9719 97.3306 32.8041 96.4876 33.2078C95.6076 33.6369 94.6142 33.5992 93.6708 33.5992H91.5959V33.5615C92.2245 33.3216 92.1493 32.401 92.1493 31.8205L92.1498 27.0638ZM94.5267 32.6904C95.5576 32.7912 96.601 32.312 96.601 31.1133C96.601 29.8897 95.4196 29.3599 94.3128 29.423L93.4328 29.4731V32.589L94.5267 32.6904ZM93.8476 28.6409C94.6647 28.6409 95.8349 28.3633 95.8349 27.329C95.8349 26.4585 95.029 26.0041 94.2752 26.0801L93.4328 26.1685V28.6409H93.8476ZM101.179 30.4826L100.526 32.2608C100.262 32.9674 100.174 33.3334 100.777 33.5603V33.598H98.4642V33.5603C99.1933 33.1949 99.4071 32.4883 99.6832 31.7687L101.783 26.5086C101.96 26.0542 102.198 25.5244 101.595 25.3352V25.298H103.581L106.196 31.7692C106.486 32.4883 106.713 33.1949 107.428 33.5609V33.5986H104.851V33.5609C105.467 33.2833 105.366 33.1442 105.027 32.2613L104.348 30.4832L101.179 30.4826ZM102.751 26.3701L101.507 29.5491H103.983L102.751 26.3701ZM111.622 31.959C111.622 32.7157 111.622 33.0941 112.263 33.5609V33.5986H109.811V33.5609C110.427 33.2456 110.339 32.4258 110.339 31.8329V29.9658L108.251 26.5975C107.912 26.0424 107.66 25.6263 107.057 25.298H108.202C108.604 25.298 108.981 25.3864 109.144 25.651L111.156 28.9438L112.714 26.5975C112.929 26.2822 113.217 25.6769 112.514 25.3357V25.298H114.715L111.622 29.9658V31.959ZM118.35 32.6904C119.205 32.7405 119.946 32.4505 120.575 31.9207H120.613L119.959 33.5986H114.79V33.5609C115.432 33.334 115.356 32.4004 115.356 31.8329V27.0767C115.356 26.4968 115.432 25.5756 114.79 25.3357V25.298H117.192V25.3357C116.55 25.5756 116.64 26.5091 116.64 27.0767V32.5772L118.35 32.6904ZM130.296 29.3599C130.296 31.9336 128.17 33.8002 125.668 33.8002C123.178 33.8002 121.079 32.0091 121.079 29.423C121.079 27.0266 123.153 25.0204 125.793 25.0835C128.435 25.0711 130.296 27.0891 130.296 29.3599ZM122.512 29.3098C122.512 31.0761 123.757 32.8925 125.731 32.8925C127.643 32.8925 128.862 31.4922 128.862 29.6127C128.862 27.771 127.692 25.9917 125.706 25.9917C123.757 25.9917 122.512 27.405 122.512 29.3098ZM134.083 25.298C135.768 25.298 136.686 26.1809 136.686 27.329C136.686 28.4393 135.717 29.3098 134.687 29.5491L136.498 31.8323C137.025 32.4883 137.818 33.1442 138.535 33.5986H137.378C136.712 33.5986 136.296 33.4342 135.919 32.9674L134.385 31.0626L133.228 29.2839C134.234 29.1324 135.404 28.6657 135.404 27.4799C135.404 26.5716 134.623 26.0418 133.781 26.0795C133.495 26.0947 133.209 26.1284 132.927 26.1803V31.8323C132.927 32.4128 132.851 33.3334 133.492 33.5603V33.598H131.091V33.5603C131.732 33.3334 131.644 32.3999 131.644 31.8323V27.0761C131.644 26.4962 131.732 25.575 131.091 25.3352V25.298H134.083ZM98.0602 37.3801C97.3687 36.9387 96.5639 36.6611 95.7339 36.6611C93.9985 36.6611 92.7913 37.9353 92.7913 39.7647C92.7913 41.6188 94.0485 43.2714 95.9847 43.2714C96.9276 43.2714 97.871 42.9313 98.6624 42.4769H98.7005L98.059 43.9403C97.4681 44.2179 96.8137 44.3187 96.1604 44.3187C93.1926 44.3187 91.3568 42.6532 91.3568 39.9539C91.3568 37.3424 93.1926 35.6144 95.7703 35.6144C96.5375 35.6144 97.3171 35.7534 98.059 35.9297V37.3801H98.0602ZM108.159 39.8784C108.159 42.4516 106.035 44.3187 103.532 44.3187C101.043 44.3187 98.9424 42.5276 98.9424 39.9415C98.9424 37.5445 101.017 35.5389 103.657 35.6014C106.297 35.589 108.159 37.6076 108.159 39.8784ZM100.376 39.8277C100.376 41.594 101.621 43.4105 103.594 43.4105C105.506 43.4105 106.726 42.0101 106.726 40.1307C106.726 38.2889 105.557 36.5102 103.569 36.5102C101.62 36.5102 100.376 37.9229 100.376 39.8277ZM112.562 43.2089C113.418 43.259 114.16 42.969 114.789 42.4392H114.826L114.173 44.1171H109.004V44.0794C109.646 43.8525 109.57 42.9189 109.57 42.3514V37.5952C109.57 37.0147 109.646 36.0935 109.004 35.8542V35.8165H111.406V35.8542C110.764 36.0935 110.852 37.0271 110.852 37.5952V43.0952L112.562 43.2089ZM119.102 43.2089C119.957 43.259 120.699 42.969 121.328 42.4392H121.365L120.712 44.1171H115.544V44.0794C116.185 43.8525 116.109 42.9189 116.109 42.3514V37.5952C116.109 37.0147 116.185 36.0935 115.544 35.8542V35.8165H117.945V35.8542C117.304 36.0935 117.392 37.0271 117.392 37.5952V43.0952L119.102 43.2089ZM123.918 43.0574L125.516 43.2095C126.346 43.2849 127.213 43.0203 127.842 42.4651H127.88L127.314 44.1177H122.07V44.0799C122.712 43.853 122.636 42.9195 122.636 42.3519V37.5952C122.636 37.0147 122.712 36.0935 122.07 35.8542V35.8165H126.094C126.308 35.8165 126.522 35.8413 126.685 35.7534H126.722V37.2292H126.685C126.295 36.7748 125.78 36.7247 125.201 36.7247C124.761 36.7247 124.321 36.7371 123.918 36.8131V39.1594H125.415C125.616 39.1594 125.817 39.1594 125.968 39.0834H126.005V40.4206H125.968C125.766 40.0546 125.239 40.0676 124.849 40.0676H123.918V43.0574ZM135.512 37.2793H135.475C134.96 36.6994 134.004 36.5226 133.237 36.5226C131.276 36.5226 129.78 37.8092 129.78 39.8401C129.78 41.8711 131.389 43.4099 133.375 43.4099C133.966 43.4118 134.554 43.3313 135.123 43.1706V41.3536C135.123 40.7737 135.11 40.1554 134.545 39.9285V39.8902H136.469V39.9285C136.406 40.08 136.406 40.2816 136.406 40.4707V43.3722C136.406 43.5614 136.393 43.7629 136.469 43.9397C135.463 44.1284 134.482 44.3181 133.464 44.3181C130.244 44.3181 128.346 42.5524 128.346 40.0164C128.346 37.3041 130.495 35.6138 133.538 35.6138C134.205 35.6138 134.859 35.6893 135.513 35.8283L135.512 37.2793ZM139.012 43.0574L140.609 43.2095C141.439 43.2849 142.306 43.0203 142.936 42.4651H142.973L142.407 44.1177H137.164V44.0799C137.805 43.853 137.73 42.9195 137.73 42.3519V37.5952C137.73 37.0147 137.805 36.0935 137.164 35.8542V35.8165H141.187C141.401 35.8165 141.614 35.8413 141.779 35.7534H141.816V37.2292H141.779C141.389 36.7748 140.872 36.7247 140.294 36.7247C139.855 36.7247 139.414 36.7371 139.012 36.8131V39.1594H140.508C140.709 39.1594 140.911 39.1594 141.062 39.0834H141.099V40.4206H141.062C140.86 40.0546 140.331 40.0676 139.943 40.0676H139.012V43.0574ZM100.612 50.3969C100.612 52.9701 98.4878 54.8366 95.9853 54.8366C93.4957 54.8366 91.3961 53.045 91.3961 50.46C91.3961 48.0625 93.471 46.058 96.1116 46.1205C98.7516 46.107 100.612 48.1261 100.612 50.3969ZM92.8289 50.3462C92.8289 52.1125 94.0737 53.9278 96.047 53.9278C97.9586 53.9278 99.1787 52.5281 99.1787 50.6486C99.1787 48.8068 98.0091 47.0281 96.0218 47.0281C94.0737 47.0287 92.8289 48.442 92.8289 50.3462ZM103.206 52.8693C103.206 53.4369 103.104 54.3586 103.734 54.5979V54.635H101.357V54.5979C101.999 54.3704 101.923 53.4369 101.923 52.8693V48.1131C101.923 47.5337 101.999 46.612 101.357 46.3722V46.335H105.38C105.594 46.335 105.808 46.3603 105.972 46.2714H106.009V47.7353H105.972C105.582 47.2944 105.067 47.2438 104.488 47.2438C104.048 47.2438 103.608 47.2556 103.206 47.3316V49.6784H104.714C104.903 49.6784 105.104 49.6784 105.256 49.6024H105.293V50.9397H105.256C105.054 50.5613 104.526 50.5866 104.137 50.5866H103.206L103.206 52.8693ZM98.9907 57.6474C99.0906 57.3822 99.1793 57.1305 99.1793 56.8653V56.8524H101.354V56.8907C101.053 56.9785 100.965 57.345 100.965 57.6339L101.795 63.8287C101.87 64.4216 101.933 64.7622 102.437 65.1152V65.1524H100.01V65.1152C100.449 64.9767 100.525 64.5984 100.525 64.1693L99.8084 58.0877L96.9921 65.3174C96.363 64.8377 96.1862 64.497 95.8848 63.7909L93.4962 58.1012L92.7801 63.5263C92.6791 64.2949 92.5915 64.8506 93.1825 65.1152V65.1524H91.1329V65.1152C91.661 64.649 91.7368 64.0297 91.8367 63.3489L92.5534 58.0635C92.6033 57.7093 92.7419 57.206 92.1639 56.8901V56.8518H94.3645V56.8647C94.3645 57.0658 94.4649 57.2549 94.5407 57.4323L96.9035 62.9959L98.9907 57.6474ZM104.804 64.0938L106.402 64.2448C107.232 64.3208 108.098 64.0556 108.728 63.5015H108.765L108.199 65.1535H102.956V65.1164C103.598 64.8889 103.522 63.9559 103.522 63.3878V58.6328C103.522 58.0522 103.598 57.1316 102.956 56.8918V56.8535H106.979C107.193 56.8535 107.407 56.8788 107.57 56.791H107.608V58.2668H107.57C107.181 57.8124 106.666 57.7623 106.087 57.7623C105.646 57.7623 105.207 57.7752 104.804 57.8512V60.1969H106.301C106.501 60.1969 106.703 60.1969 106.854 60.1209H106.891V61.4582H106.854C106.653 61.0933 106.124 61.1051 105.735 61.1051H104.804V64.0938ZM109.973 58.581C109.973 58.0004 110.06 57.0798 109.419 56.8907V56.8524H112.501C115.367 56.8524 117.153 58.4171 117.153 60.9278C117.153 63.412 115.254 65.153 112.438 65.153H109.419V65.1158C110.049 64.6868 109.973 64.0809 109.973 63.3377V58.581ZM111.255 64.1569C111.558 64.2182 111.866 64.2477 112.174 64.2448C114.047 64.2448 115.719 63.2617 115.719 61.0787C115.719 58.8715 114.487 57.7606 112.387 57.7606C112.01 57.7606 111.632 57.8113 111.255 57.8991L111.255 64.1569ZM118.541 58.6316C118.541 58.0511 118.628 57.1305 117.987 56.8907V56.8524H120.376V56.8907C119.748 57.1305 119.824 58.0641 119.824 58.6316V63.3867C119.824 63.9553 119.748 64.8759 120.376 65.1152V65.1524H117.987V65.1152C118.615 64.8878 118.541 63.9548 118.541 63.3867V58.6316ZM127.743 58.4171C127.051 57.9751 126.246 57.6981 125.416 57.6981C123.681 57.6981 122.474 58.9728 122.474 60.8017C122.474 62.6558 123.731 64.3089 125.667 64.3089C126.611 64.3089 127.553 63.9683 128.346 63.5139H128.383L127.741 64.9779C127.15 65.2549 126.497 65.3562 125.843 65.3562C122.876 65.3562 121.039 63.6913 121.039 60.9914C121.039 58.3794 122.875 56.6519 125.453 56.6519C126.219 56.6519 127 56.7904 127.741 56.9678V58.4171H127.743ZM129.355 58.6316C129.355 58.0511 129.442 57.1305 128.802 56.8907V56.8524H131.19V56.8907C130.562 57.1305 130.638 58.0641 130.638 58.6316V63.3867C130.638 63.9553 130.562 64.8759 131.19 65.1152V65.1524H128.802V65.1152C129.43 64.8878 129.355 63.9548 129.355 63.3867V58.6316ZM133.591 63.5133C133.591 64.2205 133.579 64.7239 134.245 65.1158V65.153H132.02V65.1158C132.685 64.7245 132.685 64.2205 132.685 63.5133V58.4802C132.685 57.7741 132.685 57.2696 132.032 56.8912V56.8529H133.868V56.8659C133.918 57.0168 133.969 57.0804 134.056 57.1818L134.231 57.4334L138.834 63.2622V58.4807C138.834 57.7747 138.846 57.2702 138.18 56.8918V56.8535H140.393V56.8918C139.739 57.2702 139.739 57.7747 139.739 58.4807V65.5584C138.846 65.2549 138.457 64.8393 137.904 64.1198L133.59 58.6322V63.5133H133.591ZM143.039 64.0938L144.636 64.2448C145.466 64.3208 146.333 64.0556 146.962 63.5015H147L146.434 65.1535H141.19V65.1164C141.832 64.8889 141.756 63.9559 141.756 63.3878V58.6328C141.756 58.0522 141.832 57.1316 141.19 56.8918V56.8535H145.214C145.428 56.8535 145.642 56.8788 145.805 56.791H145.842V58.2668H145.805C145.416 57.8124 144.9 57.7623 144.321 57.7623C143.881 57.7623 143.442 57.7752 143.039 57.8512V60.1969H144.535C144.736 60.1969 144.938 60.1969 145.088 60.1209H145.126V61.4582H145.088C144.888 61.0933 144.359 61.1051 143.969 61.1051H143.039V64.0938ZM88.5232 29.6966C88.0304 30.1994 87.4333 30.4506 86.7312 30.4506C86.0296 30.4506 85.4319 30.2017 84.9375 29.7028C84.4436 29.2045 84.1961 28.6003 84.1961 27.8909C84.1961 27.1814 84.4442 26.575 84.9414 26.0705C85.4381 25.5666 86.0347 25.3143 86.7306 25.3143C87.4271 25.3143 88.0231 25.5671 88.5187 26.0728C89.0143 26.5784 89.2618 27.1843 89.2618 27.8909C89.2618 28.5925 89.0154 29.1944 88.5232 29.6966ZM87.8699 26.1657C87.8503 26.2614 87.8228 26.3278 87.7857 26.365C87.7492 26.4022 87.6937 26.4207 87.6202 26.4207C87.6005 26.4207 87.4916 26.3751 87.2924 26.285C87.1012 26.1963 86.8931 26.15 86.6823 26.1494C86.2098 26.1494 85.8124 26.3205 85.4886 26.6629C85.1648 27.0052 85.0031 27.4258 85.0031 27.9241C85.0031 28.4174 85.1653 28.834 85.4903 29.1735C85.8152 29.5131 86.2154 29.6831 86.6908 29.6831C86.9746 29.6882 87.2541 29.6135 87.4978 29.4675C87.7318 29.3239 87.9328 29.1065 88.1 28.8166L87.9485 28.7096C87.7896 28.9506 87.6157 29.1319 87.426 29.2518C87.2383 29.3718 87.0199 29.4346 86.7974 29.4325C86.4477 29.4325 86.1817 29.2991 85.9988 29.0322C85.8158 28.7648 85.7243 28.3768 85.7243 27.8678C85.7243 27.3661 85.8085 26.9872 85.9763 26.7299C86.1441 26.472 86.3905 26.3436 86.7155 26.3436C87.0045 26.3436 87.2469 26.4388 87.4422 26.6291C87.6376 26.8194 87.7773 27.0981 87.862 27.4652H88.0383L88.0299 26.1668H87.8699V26.1657ZM85.4864 25.2496C85.0941 25.4383 84.7485 25.7119 84.4745 26.0508C84.2629 26.306 84.098 26.5967 83.9873 26.9095C83.8751 27.2248 83.8195 27.5519 83.8195 27.8915C83.8195 28.338 83.9121 28.7557 84.0962 29.1448C84.2803 29.5339 84.5457 29.8706 84.8926 30.1555C85.1481 30.368 85.4384 30.5344 85.7507 30.6471C86.0627 30.7583 86.3916 30.8145 86.7227 30.8132C87.1531 30.8135 87.5782 30.7178 87.9672 30.533C88.3561 30.3481 88.6992 30.0788 88.9716 29.7445C89.1857 29.484 89.3541 29.1889 89.4694 28.8717C89.5856 28.5525 89.6434 28.2259 89.6434 27.8915C89.6436 27.454 89.5456 27.0222 89.3566 26.6279C89.174 26.2351 88.9036 25.8899 88.5664 25.6189C88.307 25.4097 88.0142 25.246 87.7004 25.1347C87.3427 25.003 86.9622 24.9453 86.5817 24.9651C86.2012 24.9848 85.8286 25.0816 85.4864 25.2496ZM42.0516 44.1914L42.1066 42.8846C42.1341 42.2258 42.5511 42.0743 42.8278 42.0862C43.2123 42.1025 43.3116 42.3243 43.3627 42.4386C43.4996 42.1143 43.7645 42.0394 44.0294 42.0501C44.2421 42.0597 44.4397 42.1577 44.5721 42.3057C44.7147 42.4651 44.8022 42.6154 44.7792 43.1655L44.7315 44.3035L42.0516 44.1914ZM44.2909 43.7461L44.3196 43.0569C44.3314 42.7838 44.218 42.6211 43.9458 42.6098C43.7106 42.5997 43.6124 42.7979 43.6046 43L43.5743 43.7151L44.2909 43.7461ZM43.123 43.6965L43.1505 43.0372C43.1595 42.8159 43.0809 42.6368 42.8688 42.6278C42.6482 42.6182 42.5747 42.7725 42.564 43.027L42.5371 43.6717L43.123 43.6965ZM44.8769 41.2393L44.837 41.83L42.2267 40.6915L42.2705 40.0451L45.0093 39.281L44.9683 39.8908L44.4054 40.0254L44.3386 41.0152L44.8769 41.2393ZM43.8863 40.8339L43.9329 40.1504L42.8525 40.4111L42.8514 40.4184L43.8863 40.8339ZM45.1603 37.6819L45.1064 38.241L44.0996 38.1436L42.3491 38.9083L42.4119 38.2483L43.6253 37.8041L42.5163 37.1628L42.5775 36.5288L44.1602 37.5851L45.1603 37.6819ZM44.8853 35.8576L45.0862 34.535L45.5661 34.6082L45.281 36.4865L42.6297 36.0811L42.7139 35.526L44.8853 35.8576ZM43.3009 32.3959C43.4008 32.0547 43.81 31.1989 45.0177 31.553C46.2255 31.9072 46.1099 32.8497 46.0106 33.191C45.9107 33.5327 45.5015 34.388 44.2937 34.0339C43.0865 33.6797 43.2016 32.7371 43.3009 32.3959ZM45.5554 33.0575C45.6401 32.7664 45.5806 32.3041 44.86 32.0924C44.14 31.8813 43.8414 32.2383 43.7561 32.5294C43.6708 32.8205 43.7308 33.2833 44.4509 33.4944C45.1715 33.7062 45.4706 33.3486 45.5554 33.0575ZM44.0962 30.3008L44.7809 29.1268C45.1406 28.5086 45.6615 28.6623 45.8613 28.7794C46.1161 28.9292 46.2597 29.187 46.2036 29.4618C46.3984 29.3205 46.5297 29.258 46.9618 29.5114C47.3003 29.7101 47.3839 29.7591 47.4832 29.6786L47.5444 29.7146L47.2318 30.2512C47.1033 30.2191 46.9725 30.1685 46.734 30.0288C46.418 29.8436 46.2839 29.7912 46.0745 30.1504L45.7821 30.6516L46.688 31.1831L46.4107 31.6583L44.0962 30.3008ZM45.7243 29.8537C45.8714 29.6015 45.8562 29.4275 45.6272 29.2929C45.5049 29.2214 45.2922 29.1702 45.1261 29.4551L44.7736 30.0598L45.3926 30.423L45.7243 29.8537ZM50.034 26.0204C49.9246 25.8943 49.7169 25.6578 49.2988 25.8571C49.0563 25.9731 48.7757 26.3064 49.1018 26.9934C49.3095 27.4292 49.6675 27.7394 50.0957 27.535C50.3758 27.401 50.4953 27.1488 50.4145 26.8222L50.9202 26.5807C51.0695 27.1561 50.9005 27.6893 50.2944 27.9793C49.6507 28.2867 48.9811 28.0716 48.5827 27.2332C48.1797 26.3841 48.4631 25.7175 49.0861 25.4196C49.8112 25.0728 50.3416 25.4331 50.5391 25.7794L50.034 26.0204ZM51.9753 24.3301C52.3148 24.2288 53.2538 24.1105 53.6113 25.3211C53.9688 26.5311 53.1168 26.9444 52.7767 27.0452C52.4366 27.146 51.4983 27.2653 51.1408 26.0548C50.7833 24.8442 51.6346 24.4309 51.9753 24.3301ZM52.642 26.5891C52.9322 26.503 53.2869 26.2017 53.0742 25.4799C52.8615 24.758 52.3996 24.6995 52.11 24.7856C51.8198 24.8718 51.4646 25.173 51.6779 25.8948C51.8911 26.6167 52.3525 26.6752 52.642 26.5891ZM54.8348 25.9742L56.1469 25.7366L56.2328 26.2158L54.3695 26.5531L53.893 23.905L54.4447 23.8059L54.8348 25.9742ZM57.0808 25.6212L58.4042 25.4607L58.4626 25.9444L56.583 26.1724L56.2609 23.5019L56.8165 23.4343L57.0808 25.6212ZM60.6239 23.5694L59.2045 23.6668L59.2432 24.231L60.547 24.1415L60.5795 24.6161L59.2752 24.7057L59.3224 25.4005L60.8051 25.2991L60.8377 25.7738L58.8072 25.9123L58.6248 23.2293L60.5919 23.0948L60.6239 23.5694ZM62.5152 24.3115L63.636 24.3222L63.6225 25.7727L63.2487 25.7693L63.196 25.4315C63.0523 25.5953 62.8447 25.8369 62.3553 25.8323C61.7093 25.8262 61.1273 25.356 61.1357 24.4118C61.1424 23.6775 61.5561 22.9878 62.4596 23.0002C63.2813 23.008 63.6017 23.5469 63.6281 23.918L63.0675 23.9129C63.0686 23.8076 62.8811 23.4686 62.4855 23.4653C62.0859 23.4619 61.7132 23.7355 61.707 24.4253C61.7003 25.1595 62.0982 25.3543 62.4787 25.3577C62.6022 25.3588 63.0136 25.3138 63.1342 24.7715L62.5107 24.7659L62.5152 24.3115ZM66.2457 23.762L64.8275 23.6471L64.782 24.2113L66.0852 24.3166L66.047 24.7907L64.7439 24.6854L64.6877 25.3802L66.1694 25.4996L66.1312 25.9742L64.1029 25.8104L64.3184 23.1285L66.2839 23.2879L66.2457 23.762ZM70.2523 23.8166C70.5997 23.8875 71.4842 24.2248 71.2339 25.4619C70.9836 26.6995 70.0379 26.6634 69.6905 26.5925C69.3431 26.5215 68.4586 26.1843 68.7095 24.9472C68.9598 23.7096 69.9049 23.7457 70.2523 23.8166ZM69.7848 26.1257C70.0812 26.186 70.5352 26.088 70.685 25.3498C70.8343 24.6116 70.4544 24.3431 70.1586 24.2822C69.8617 24.222 69.4077 24.3205 69.2584 25.0581C69.1091 25.7958 69.4885 26.0655 69.7848 26.1257ZM71.8552 27.0756L71.3237 26.8993L72.1644 24.3453L73.9761 24.9455L73.8274 25.3971L72.5472 24.9731L72.3575 25.5491L73.4783 25.9207L73.3296 26.3723L72.2093 26.0013L71.8552 27.0756ZM77.1218 30.1088L76.7278 29.7636L78.2033 28.0711L78.1977 28.066L76.3456 29.428L75.932 29.0654L77.0393 27.0502L77.0337 27.0452L75.5582 28.7377L75.1648 28.392L76.9298 26.3667L77.5455 26.9067L76.5196 28.8244L76.5258 28.8289L78.2768 27.5486L78.8869 28.0835L77.1218 30.1088ZM80.0357 31.1763L79.4043 29.8971L78.8998 30.1482L79.4795 31.3233L79.0541 31.5344L78.4743 30.3593L77.8519 30.669L78.512 32.0046L78.0865 32.2163L77.183 30.3864L79.5856 29.1927L80.4611 30.9652L80.0357 31.1763ZM80.7692 31.8413L81.0723 32.9894C81.3035 33.8655 80.6081 34.2444 80.1171 34.3751C79.5615 34.5226 78.7016 34.5147 78.4743 33.6566L78.1775 32.5305L80.7692 31.8413ZM78.7651 32.9432L78.9048 33.4719C79.0215 33.9139 79.5048 33.9443 79.9307 33.8312C80.6963 33.6279 80.6609 33.2456 80.5997 33.0142L80.4622 32.4922L78.7651 32.9432ZM78.8717 35.6149L78.7802 35.0597L81.4253 34.6194L81.5168 35.1741L78.8717 35.6149ZM80.9303 37.5986C81.0846 37.5361 81.3759 37.4173 81.3254 36.9556C81.2962 36.6876 81.0751 36.312 80.3214 36.3948C79.8421 36.4477 79.4329 36.6847 79.4846 37.1577C79.5182 37.4668 79.7164 37.6633 80.0503 37.6949L80.1115 38.2534C79.5205 38.2056 79.0743 37.87 79.0008 37.1994C78.9228 36.4882 79.3459 35.9252 80.2669 35.8238C81.1986 35.7213 81.7323 36.209 81.8081 36.8981C81.8956 37.6988 81.3815 38.0828 80.9915 38.156L80.9303 37.5986ZM79.2657 39.2754L79.2191 38.7151L81.8917 38.4905L81.9383 39.0507L79.2657 39.2754ZM82.0926 41.2466L82.1263 41.7697L79.4503 41.9443L79.4144 41.3835L81.2513 40.1633L81.2508 40.156L79.3426 40.2804L79.3089 39.7573L81.9848 39.5828L82.023 40.1729L80.2288 41.3604L80.2293 41.3683L82.0926 41.2466ZM81.7609 44.3553L81.7048 42.9285L81.1408 42.951L81.1929 44.2613L80.7187 44.2798L80.6665 42.9696L79.9728 42.9977L80.0318 44.4876L79.5575 44.5067L79.4773 42.4662L82.1566 42.3592L82.2352 44.3361L81.7609 44.3553ZM44.5598 48.0625L44.631 49.3603C44.6686 50.0433 44.1731 50.1959 43.952 50.2083C43.6702 50.2246 43.4205 50.0951 43.3206 49.8451C43.2392 50.0619 43.1679 50.1807 42.6898 50.2071C42.3154 50.2269 42.2228 50.2325 42.1863 50.349L42.1184 50.3535L42.0859 49.7595C42.2048 49.7167 42.3356 49.688 42.5994 49.6739C42.9485 49.6542 43.0832 49.6255 43.0613 49.2286L43.0304 48.6745L42.0292 48.7308L42 48.2049L44.5598 48.0625ZM43.4968 49.2798C43.512 49.5579 43.6158 49.6891 43.8689 49.6745C44.0042 49.6677 44.2006 49.5951 44.1832 49.2809L44.1467 48.612L43.4626 48.6503L43.4968 49.2798ZM44.4543 52.5326L44.3151 51.1767L43.7785 51.2319L43.9071 52.4774L43.4564 52.5247L43.3279 51.2792L42.6679 51.3473L42.8138 52.7634L42.3626 52.8107L42.1633 50.8699L44.7119 50.6058L44.9049 52.4864L44.4543 52.5326ZM43.2762 53.6035C43.1359 53.63 42.88 53.7454 42.9569 54.2082C42.9984 54.4588 43.1045 54.7285 43.3722 54.6835C43.5698 54.6502 43.5911 54.4515 43.6096 54.1722L43.6281 53.8895C43.6551 53.4639 43.6814 53.054 44.2376 52.9605C44.5194 52.9132 45.0413 52.9825 45.1771 53.8062C45.3056 54.5827 44.8337 54.876 44.5244 54.9312L44.4402 54.4222C44.5502 54.389 44.8112 54.3023 44.7343 53.8394C44.7006 53.6384 44.5867 53.4104 44.3583 53.4492C44.1613 53.4825 44.1461 53.6514 44.1388 53.7617L44.09 54.4053C44.0625 54.7662 43.9744 55.1069 43.5204 55.1829C42.7599 55.3096 42.564 54.5438 42.527 54.322C42.3738 53.3957 42.8789 53.1486 43.1926 53.0956L43.2762 53.6035ZM45.4011 57.1637L45.052 55.8451L44.5311 55.9847L44.8522 57.1953L44.4139 57.3118L44.0934 56.1012L43.4519 56.2719L43.8167 57.6485L43.3789 57.7662L42.8794 55.88L45.355 55.2195L45.8394 57.0461L45.4011 57.1637ZM43.774 58.8197L43.5361 58.3062L46.2451 58.0522L46.5056 58.613L44.5637 60.5212L44.3179 59.9914L44.727 59.6187L44.3274 58.7589L43.774 58.8197ZM44.7899 58.7009L45.0654 59.2949L45.85 58.5759L45.8472 58.5691L44.7899 58.7009ZM46.991 59.5697L47.7902 60.5922C48.2111 61.1299 47.8918 61.5404 47.7178 61.6778C47.4956 61.8518 47.2166 61.8889 46.9933 61.7425C47.0499 61.9655 47.0584 62.1046 46.6823 62.4002C46.3877 62.6322 46.3142 62.6896 46.3512 62.8073L46.2979 62.8489L45.9325 62.3805C46.0055 62.278 46.0964 62.1795 46.3046 62.0156C46.5796 61.8 46.6734 61.6992 46.4292 61.3855L46.088 60.9492L45.2983 61.5702L44.9745 61.1558L46.991 59.5697ZM46.8148 61.1778C46.9865 61.3979 47.1459 61.4452 47.3457 61.2876C47.4524 61.2042 47.5725 61.0325 47.3783 60.7848L46.9669 60.2566L46.4281 60.6812L46.8148 61.1778ZM49.2567 63.1141C49.319 62.9666 49.4352 62.6896 49.09 62.4126C48.8897 62.251 48.4867 62.1485 48.0349 62.716C47.7476 63.077 47.6314 63.5156 47.9855 63.7994C48.2167 63.9841 48.4833 63.9829 48.7291 63.7774L49.1473 64.113C48.7157 64.4812 48.1887 64.5584 47.6869 64.1558C47.1543 63.729 47.0606 63.0629 47.6129 62.3686C48.1718 61.6671 48.861 61.6327 49.3768 62.0466C49.9762 62.5274 49.8892 63.1355 49.6748 63.4497L49.2567 63.1141ZM50.2332 64.403L49.7102 65.43L49.2331 65.1851L50.3994 62.8962L50.8764 63.1406L50.4342 64.0083L51.3243 64.4649L51.766 63.5972L52.243 63.841L51.0762 66.131L50.5997 65.8855L51.1228 64.8596L50.2332 64.403ZM56.198 65.3399L54.8662 65.0663L54.7579 65.595L55.9819 65.8472L55.891 66.2926L54.6675 66.0415L54.5345 66.6941L55.9258 66.9795L55.8349 67.4249L53.9289 67.0336L54.443 64.515L56.2889 64.8945L56.198 65.3399ZM56.7222 64.9649L57.8447 65.1057C58.7016 65.2132 58.7875 65.9666 58.7269 66.4508C58.6584 66.9975 58.3441 67.7594 57.5051 67.6541L56.404 67.5156L56.7222 64.9649ZM56.9792 67.14L57.4961 67.2048C57.9283 67.2588 58.1281 66.8399 58.1803 66.4204C58.2746 65.6682 57.9243 65.5629 57.6976 65.5342L57.188 65.4705L56.9792 67.14ZM61.1879 67.0415C61.152 67.7177 60.7299 67.9851 60.0851 67.9508C59.8499 67.9379 59.5036 67.8618 59.2893 67.5955C59.1591 67.4305 59.1164 67.2205 59.1231 66.9621L59.2146 65.2611L59.7601 65.2909L59.6709 66.957C59.6518 67.3145 59.8499 67.4829 60.0997 67.4959C60.4667 67.5156 60.6261 67.3449 60.6429 67.0341L60.7333 65.3427L61.2788 65.3726L61.1879 67.0415ZM63.3918 66.1924C63.3464 66.0398 63.2594 65.7515 62.8172 65.7588C62.5601 65.7633 62.1846 65.9412 62.197 66.6682C62.2048 67.1299 62.394 67.5415 62.8475 67.5336C63.1438 67.5291 63.3481 67.3579 63.4064 67.0409L63.9419 67.0319C63.8442 67.5916 63.4867 67.9885 62.8447 67.9998C62.1633 68.0111 61.6661 67.5578 61.6515 66.6704C61.6358 65.7706 62.1454 65.3044 62.8059 65.2926C63.5731 65.2797 63.8925 65.8039 63.9278 66.1834L63.3918 66.1924ZM64.8415 67.8495L64.2797 67.899L64.9683 65.2577L65.5835 65.2048L66.7042 67.6879L66.1245 67.7385L65.9151 67.225L64.9728 67.3067L64.8415 67.8495ZM65.0772 66.8511L65.7277 66.7948L65.3236 65.8095H65.3163L65.0772 66.8511ZM68.2341 67.4502L67.7055 67.5341L67.38 65.4435L66.6144 65.5634L66.5443 65.1136L68.604 64.7915L68.6736 65.2402L67.9086 65.3596L68.2341 67.4502ZM69.8752 67.1349L69.3516 67.2459L68.8223 64.7307L69.3465 64.6198L69.8752 67.1349ZM70.8214 64.1642C71.1458 64.0663 72.0427 63.9475 72.3901 65.1034C72.7375 66.2594 71.9254 66.6575 71.601 66.7566C71.276 66.8545 70.3797 66.9722 70.0323 65.8174C69.6849 64.6614 70.497 64.2633 70.8214 64.1642ZM71.4696 66.3207C71.7463 66.2374 72.0847 65.948 71.8771 65.2583C71.67 64.5696 71.2289 64.5161 70.9522 64.5995C70.6755 64.6828 70.3371 64.9722 70.5447 65.662C70.7518 66.3517 71.1929 66.4046 71.4696 66.3207ZM73.6382 63.0117L74.0794 62.7763L75.2815 65.0465L74.809 65.2982L73.0282 64.1721L73.022 64.1755L73.879 65.7943L73.4379 66.0285L72.2363 63.7588L72.7341 63.4936L74.4694 64.5955L74.4756 64.5922L73.6382 63.0117ZM77.4046 62.2588C77.5152 62.3489 77.7683 62.4711 78.0714 62.1136C78.2353 61.9199 78.3722 61.6648 78.1657 61.4891C78.0136 61.3596 77.848 61.4717 77.623 61.6367L77.3962 61.805C77.0544 62.059 76.725 62.3033 76.2957 61.9368C76.0785 61.751 75.795 61.3067 76.3338 60.671C76.8429 60.0719 77.3704 60.2453 77.6117 60.4469L77.2784 60.8394C77.1824 60.7758 76.9484 60.6327 76.6453 60.9892C76.5134 61.1451 76.4129 61.3782 76.5892 61.5302C76.7413 61.6598 76.8805 61.5623 76.9691 61.497L77.4905 61.1198C77.7824 60.9086 78.0994 60.756 78.4497 61.055C79.0361 61.5567 78.5787 62.1997 78.4334 62.3726C77.8273 63.0865 77.3132 62.8585 77.0713 62.6507L77.4046 62.2588ZM78.4996 58.224L77.8587 59.4267L78.334 59.6806L78.9228 58.5759L79.3224 58.7898L78.7336 59.8951L79.319 60.2099L79.9886 58.9526L80.3876 59.1671L79.4711 60.8872L77.2121 59.6767L78.1 58.0094L78.4996 58.224ZM78.2229 57.6902L78.6017 56.4475C78.801 55.7944 79.319 55.822 79.5306 55.8867C79.8 55.9689 79.9902 56.1773 79.9981 56.4453C80.1485 56.2702 80.2568 56.1846 80.7137 56.3242C81.0723 56.434 81.1604 56.4616 81.235 56.3648L81.3001 56.3845L81.1267 56.9532C81.0005 56.9509 80.868 56.9334 80.6154 56.8552C80.2809 56.7527 80.1451 56.7341 80.0295 57.1136L79.8679 57.6446L80.8265 57.9379L80.6732 58.4419L78.2229 57.6902ZM79.6383 56.916C79.7197 56.6485 79.667 56.4903 79.4251 56.4154C79.2954 56.376 79.0861 56.3749 78.994 56.6761L78.7987 57.3163L79.4537 57.5173L79.6383 56.916ZM79.1776 53.8237L79.2792 53.2753L81.6402 54.6024L81.5471 55.1058L78.8706 55.4898L78.975 54.9222L80.9842 54.7353L80.9853 54.7279L79.1776 53.8237ZM81.9068 52.8242L81.8361 53.3563L79.2966 53.0168L79.3673 52.4842L81.9068 52.8242ZM80.4185 50.4695C80.2619 50.4982 79.9661 50.554 79.9257 50.9966C79.9021 51.2527 80.0379 51.6463 80.7591 51.7133C81.2176 51.755 81.6464 51.612 81.6885 51.1593C81.7155 50.8637 81.5679 50.6413 81.2609 50.5478L81.3102 50.0135C81.8546 50.1717 82.2088 50.5709 82.1498 51.2133C82.087 51.8941 81.5836 52.3394 80.7024 52.2578C79.8106 52.1756 79.4032 51.6165 79.4638 50.9566C79.534 50.1903 80.089 49.9284 80.4684 49.9352L80.4185 50.4695ZM80.1906 47.6193L80.1277 48.9814L80.6665 49.0067L80.7238 47.7556L81.1767 47.7764L81.1189 49.0281L81.7822 49.0585L81.8473 47.6357L82.3008 47.6565L82.211 49.6052L79.6507 49.4864L79.7377 47.5979L80.1906 47.6193ZM43.2167 46.8108C43.3662 46.8108 43.5095 46.7512 43.6152 46.6452C43.7209 46.5392 43.7802 46.3954 43.7802 46.2455C43.7802 46.0955 43.7209 45.9517 43.6152 45.8457C43.5095 45.7397 43.3662 45.6802 43.2167 45.6802C43.0673 45.6802 42.924 45.7397 42.8183 45.8457C42.7126 45.9517 42.6533 46.0955 42.6533 46.2455C42.6533 46.3954 42.7126 46.5392 42.8183 46.6452C42.924 46.7512 43.0673 46.8108 43.2167 46.8108ZM80.9836 46.5613C81.1331 46.5613 81.2764 46.5018 81.382 46.3958C81.4877 46.2898 81.5471 46.146 81.5471 45.996C81.5471 45.8461 81.4877 45.7023 81.382 45.5963C81.2764 45.4903 81.1331 45.4307 80.9836 45.4307C80.8342 45.4307 80.6908 45.4903 80.5852 45.5963C80.4795 45.7023 80.4201 45.8461 80.4201 45.996C80.4201 46.146 80.4795 46.2898 80.5852 46.3958C80.6908 46.5018 80.8342 46.5613 80.9836 46.5613ZM75.9202 63.7155C76.0696 63.7155 76.213 63.6559 76.3186 63.5499C76.4243 63.4439 76.4837 63.3001 76.4837 63.1502C76.4837 63.0002 76.4243 62.8564 76.3186 62.7504C76.213 62.6444 76.0696 62.5849 75.9202 62.5849C75.7707 62.5849 75.6274 62.6444 75.5218 62.7504C75.4161 62.8564 75.3567 63.0002 75.3567 63.1502C75.3567 63.3001 75.4161 63.4439 75.5218 63.5499C75.6274 63.6559 75.7707 63.7155 75.9202 63.7155ZM52.9614 65.9976C53.111 65.9976 53.2544 65.9379 53.3602 65.8318C53.466 65.7257 53.5254 65.5818 53.5254 65.4317C53.5254 65.2816 53.466 65.1377 53.3602 65.0315C53.2544 64.9254 53.111 64.8658 52.9614 64.8658C52.8118 64.8658 52.6683 64.9254 52.5626 65.0315C52.4568 65.1377 52.3974 65.2816 52.3974 65.4317C52.3974 65.5818 52.4568 65.7257 52.5626 65.8318C52.6683 65.9379 52.8118 65.9976 52.9614 65.9976ZM52.8867 61.9846C51.3927 61.318 49.2017 60.0899 47.9894 57.2369C46.7856 54.4064 46.4915 49.451 46.4539 46.7027C46.4124 43.6638 46.7446 38.5423 47.1179 36.0023C47.4709 33.6003 48.1965 31.4635 49.3589 30.5063C50.4027 29.6459 52.0808 28.9466 53.9239 28.4658C55.9988 27.9247 59.4851 27.5086 62.1414 27.5086C64.7977 27.5086 68.2841 27.9247 70.359 28.4658C72.2026 28.9466 73.8801 29.6459 74.924 30.5063C76.0858 31.4641 76.812 33.6009 77.165 36.0023C77.5388 38.5423 77.8705 43.6633 77.8295 46.7027C77.7919 49.451 77.4972 54.4064 76.294 57.2369C75.0817 60.0894 72.8907 61.318 71.3967 61.9846C69.9021 62.6502 66.3748 63.4418 62.1414 63.4418C57.9906 63.4418 54.3807 62.6502 52.8867 61.9846ZM63.1387 45.1576C63.5989 45.1576 64.2803 45.1526 64.5856 45.1526C64.7568 44.96 64.7102 44.8091 64.5497 44.6841C64.3847 44.5557 63.6169 44.3181 63.1393 44.0191L63.1387 45.1576ZM63.1387 54.1176C63.691 54.1176 64.3055 54.1198 64.5856 54.1198C64.8297 54.001 64.6737 53.7921 64.5497 53.6987C64.3403 53.5466 63.7999 53.2173 63.1393 52.7989L63.1387 54.1176ZM61.1464 47.5805C60.3107 47.5805 59.6619 47.5827 59.5008 47.5827C59.4077 47.6357 59.3819 47.7595 59.4335 47.8795C59.7439 48.0456 60.387 48.4031 61.1464 48.822V47.5805ZM61.1464 39.0839H59.6827C59.475 39.2298 59.5581 39.4691 59.7343 39.5732C59.9577 39.7478 60.4841 40.0721 61.1464 40.4555V39.0839ZM66.4528 38.25C66.5695 38.25 66.6814 38.2035 66.7639 38.1207C66.8464 38.038 66.8928 37.9257 66.8928 37.8086C66.8928 37.6915 66.8464 37.5792 66.7639 37.4965C66.6814 37.4137 66.5695 37.3672 66.4528 37.3672C66.3361 37.3672 66.2242 37.4137 66.1417 37.4965C66.0592 37.5792 66.0128 37.6915 66.0128 37.8086C66.0128 37.9257 66.0592 38.038 66.1417 38.1207C66.2242 38.2035 66.3361 38.25 66.4528 38.25ZM55.2523 34.5873H56.5802L57.6179 33.4426H56.2895L55.2523 34.5873ZM53.26 34.5873H54.5878L55.6255 33.4426H54.2977L53.26 34.5873ZM51.2682 34.5873H52.5966L53.6343 33.4426H52.3064L51.2682 34.5873ZM56.2895 32.9838H57.6179L56.5802 31.8391H55.2523L56.2895 32.9838ZM54.2982 32.9838H55.6261L54.5884 31.8391H53.2605L54.2982 32.9838ZM52.3059 32.9838H53.6337L52.596 31.8391H51.2676L52.3059 32.9838ZM50.1889 32.9838H51.6621L50.7962 32.0418L50.1889 32.9838ZM67.9934 33.4421H66.6649L67.7027 34.5868H69.0311L67.9934 33.4421ZM69.9857 33.4421H68.6579L69.6956 34.5868H71.0235L69.9857 33.4421ZM71.9781 33.4421H70.6497L71.6874 34.5868H73.0153L71.9781 33.4421ZM69.0311 31.8391H67.7027L66.6649 32.9838H67.9934L69.0311 31.8391ZM71.0229 31.8391H69.695L68.6573 32.9838H69.9852L71.0229 31.8391ZM73.0153 31.8391H71.6874L70.6497 32.9838H71.9781L73.0153 31.8391ZM65.8977 56.3011C66.4786 56.3011 67.2694 55.7983 67.5708 55.1136C67.8278 54.5309 67.9103 53.5951 67.4956 52.8659C67.0808 52.1367 65.8394 51.5067 65.2546 51.1384C64.9044 50.9172 64.0726 50.4487 63.1387 49.9267V47.581C64.2595 47.581 65.3371 47.5833 65.877 47.5833C66.7121 47.5833 67.2857 47.1357 67.6123 46.6312C67.82 46.3021 67.9377 45.9241 67.9535 45.5349C67.9694 45.1458 67.8829 44.7593 67.7027 44.4144C67.3917 43.8102 66.3748 43.4043 65.7833 43.0608C65.2849 42.7714 64.2343 42.1937 63.1382 41.5828V39.0845H66.2502C67.0387 39.0845 67.8273 38.9595 68.1073 38.4809C68.2964 38.1571 68.3251 37.544 68.1073 37.232C67.7824 36.7658 67.495 36.6279 67.2879 36.6279H63.1382V34.2129C63.1382 33.8801 63.5731 33.7653 63.8223 33.6926C64.0715 33.62 64.5693 33.6408 64.9016 33.7551L65.6693 34.5879H66.9978L65.96 33.4432H65.0211C64.8656 33.4432 64.855 32.9849 65.0155 32.9849H65.96L66.9978 31.8402H65.6693L64.8757 32.7405C64.2477 32.7247 63.4816 32.696 63.0444 32.9229C62.7431 33.0789 62.1414 33.6307 62.1414 34.245C62.1414 33.6307 61.5398 33.0795 61.239 32.9229C60.8023 32.696 60.0351 32.7247 59.4077 32.7405L58.6141 31.8402H57.2862L58.3239 32.9849H59.2679C59.429 32.9849 59.4183 33.4432 59.2629 33.4432H58.3239L57.2862 34.5879H58.6141L59.3819 33.7551C59.7141 33.6408 60.2119 33.6194 60.4605 33.6926C60.7097 33.7653 61.1464 33.8801 61.1464 34.2129V36.6279H59.195C58.2403 36.6279 57.0365 37.4606 56.7879 38.1267C56.5387 38.7934 56.3731 39.8339 57.3687 40.5C57.9008 40.8559 59.5783 41.8609 61.1464 42.8063V45.1582C59.9627 45.1582 58.8627 45.1531 58.4895 45.1531C57.7419 45.1531 56.7879 45.871 56.5802 46.9532C56.3725 48.0366 56.7879 48.8688 57.9496 49.5771C58.4974 49.9104 59.8191 50.7162 61.1464 51.541V54.1176C60.3702 54.1176 59.6973 54.1198 59.4234 54.1198C58.7179 54.1198 58.0955 54.1153 57.4518 54.6564C56.8086 55.1975 56.6425 55.7595 56.4141 56.26C56.1857 56.7595 56.248 56.6964 56.2272 57.0089C56.7458 56.7595 57.4097 56.4261 58.095 56.3017H61.1464V58.778C61.1464 59.0275 61.2306 59.287 61.3377 59.4391C61.4623 59.6159 61.6902 59.7358 62.1414 59.7358C62.5927 59.7358 62.8211 59.6159 62.9457 59.4391C63.0529 59.287 63.1382 59.028 63.1382 58.778V56.3017L65.8977 56.3011ZM50.7962 34.3841L51.6621 33.4421H50.1889L50.7962 34.3841ZM73.4873 32.0418L72.6213 32.9838H74.0945L73.4873 32.0418ZM74.0945 33.4421H72.6213L73.4873 34.3841L74.0945 33.4421Z" fill="white"/>
</g>
</svg>
