<svg width="190" height="90" viewBox="0 0 190 90" fill="none" xmlns="http://www.w3.org/2000/svg">
<g id="icon-heart-health">
<rect width="190" height="90" rx="12" fill="#EAEAEA"/>
<path id="Vector" fill-rule="evenodd" clip-rule="evenodd" d="M58.8707 47.577C59.4153 47.3963 59.6879 47.3068 60.0516 47.3068L57.4166 63.316L55.5084 50.7437C55.9625 50.1108 56.4172 49.6581 56.7803 49.2967C57.5987 48.3912 58.144 47.759 58.8707 47.577ZM56.4178 22.4318C59.1439 22.4318 61.7783 23.3366 63.414 25.4165C64.6859 26.9542 64.8675 30.0296 63.777 31.8386C62.8688 33.467 62.0509 34.1905 60.9605 35.0948C59.507 36.4511 58.6892 37.8988 58.235 39.7985C58.0529 40.7033 57.5987 40.7934 57.3261 39.9792C56.4172 37.0846 52.874 35.4568 53.8733 31.9293C54.0549 30.9344 54.7822 30.1202 55.3274 29.306C55.872 28.5825 56.4172 27.6783 55.9631 26.5927C55.6905 25.9593 54.9637 25.5071 54.237 25.3264C53.3281 25.055 52.3287 25.3264 51.6026 25.7785C51.2395 26.14 50.8758 25.6879 51.0574 25.3264C51.33 24.5122 51.9663 23.8788 52.6924 23.4267C53.8739 22.7938 55.1459 22.5224 56.4178 22.4318ZM51.5115 34.5526C54.0555 35.6375 55.872 37.4472 56.6905 40.2506C56.7809 40.6127 56.7809 41.1555 56.7809 41.5169H52.2383L53.1466 44.3209C53.2376 44.5923 53.4192 44.8637 53.8733 44.8637H62.0503C62.4134 44.8637 62.6866 44.5022 62.6866 44.3209L63.5949 41.5169H58.507C58.6886 40.2506 58.9612 39.3458 59.4153 38.4415C60.3242 36.9038 61.8688 35.3662 63.4134 34.7333C65.5942 33.9191 68.1382 34.0999 70.1369 35.1854C71.9541 36.0897 73.3165 37.718 74.1343 39.4364C75.1337 41.5169 75.3152 43.8688 75.1337 46.13C74.8611 48.3912 74.1343 50.6524 73.2254 52.7329C70.0452 59.1557 63.8669 65.035 57.8708 68.5626C57.5077 68.7433 57.3255 68.7433 57.0529 68.4719C55.2358 67.2056 53.4186 65.6679 51.9651 64.4016C50.5116 63.1353 49.1485 61.7795 47.8766 60.5126C45.9683 58.4322 44.3333 56.4423 42.9708 54.3619C40.1543 50.2003 37.1556 43.2359 40.4269 38.0801C41.0212 37.078 41.8227 36.213 42.7781 35.5425C43.7335 34.8719 44.8211 34.4111 45.9689 34.1905C47.8772 33.7384 49.5122 33.7384 51.5115 34.5526ZM139.916 50.1108H143.187V59.6078H147.275V50.1108H150.364V71.9994H147.275V62.8639H143.187V71.9994H139.916V50.1108ZM138.007 53.5477H134.464V72H131.375V53.5477H127.742V50.1108H138.008V53.5477H138.007ZM119.019 50.1108H122.198V68.5631H127.831V72H119.019V50.1108ZM113.021 63.0446L111.568 55.3568L110.023 63.0446H113.021ZM109.842 50.1108H113.294L117.747 71.9994H114.566L113.477 66.2107H109.388L108.206 71.9994H104.935L109.842 50.1108ZM95.3042 50.1108H104.117V53.5477H98.4851V59.5171H103.573V62.7744H98.4851V68.5631H104.117V72H95.3042V50.1108ZM83.1298 50.1108H86.31V59.5171H90.308V50.1108H93.3972V71.9994H90.3074V62.7738H86.3094V71.9994H83.1298V50.1108ZM151 21.9796H146.821V43.2359H143.278V21.9796H139.098V18H150.999V21.9796H151ZM125.56 18H131.557C135.191 18 136.827 20.8947 136.918 23.9694C137.008 27.9491 136.19 29.6681 134.555 30.4823C136.554 31.3871 137.008 34.1905 137.008 36.3617C137.008 38.6229 137.099 41.0654 137.099 43.3266H133.465C133.375 42.4218 133.284 40.794 133.284 39.1657C133.284 36.5424 134.101 32.6528 130.829 32.6528H129.103V43.3266H125.56V18ZM129.467 21.4374C130.466 21.5275 131.738 21.166 132.465 21.8896C133.375 24.0607 133.464 26.5933 132.647 28.5831C131.83 29.2166 130.557 29.2166 129.467 29.2166C129.376 29.2166 129.103 29.0358 129.103 28.7644V21.6188C129.194 21.6176 129.376 21.5275 129.467 21.4374ZM114.749 18H118.655L123.561 43.3266H119.836L118.837 36.7237H114.112L112.749 43.3266H109.024L114.749 18ZM118.292 33.2863L116.656 23.5179L114.749 33.2863H118.292ZM97.3946 18H107.479V21.9796H100.938V28.6732H106.844V32.3814H100.938V39.2557H107.479V43.2353H97.3946V18ZM83.675 18H87.3998V28.6732H91.7609V18H95.3042V43.2359H91.7609V32.3814H87.3998V43.2359H83.675V18Z" fill="white"/>
</g>
</svg>
