<svg width="190" height="90" viewBox="0 0 190 90" fill="none" xmlns="http://www.w3.org/2000/svg">
<g id="icon-cantel-medical">
<rect width="190" height="90" rx="12" fill="#EAEAEA"/>
<path id="Vector" d="M24.3969 47.7379C23.0539 49.2589 21.7109 50.5105 19.4516 50.5105C15.2594 50.5105 13 47.3815 13 43.8009C13 39.9549 15.597 37.0001 19.2846 37.0001C20.9615 37.0001 22.3008 37.8953 22.72 37.8953C23.2246 37.8953 23.3915 37.5388 23.5585 37.0001H24.063V41.4759H23.6401C22.9723 39.8638 21.4624 37.626 19.4516 37.626C16.8546 37.626 16.1831 40.4896 16.1831 43.7098C16.1831 44.8743 16.2647 46.6646 16.9362 47.9162C17.2267 48.4046 17.621 48.813 18.0871 49.1082C18.5531 49.4035 19.0778 49.5772 19.6185 49.6154C21.0432 49.6154 22.3824 48.9896 23.8108 47.1993L24.3969 47.7379ZM30.2624 48.1855C30.0101 48.542 29.5946 49.0807 28.9231 49.0807C28.3369 49.0807 28.0809 48.3637 28.0809 47.7379C28.0809 46.1298 29.8431 45.5912 30.2624 45.504V48.1855ZM33.4492 48.9024L33.2785 49.0807C33.1969 49.1678 33.1116 49.1678 33.1116 49.1678C32.6961 49.1678 32.6961 48.8113 32.6961 48.7242V43.7098C32.6961 41.9195 31.1008 41.1154 29.09 41.1154C26.9123 41.1154 25.8216 42.276 25.8216 43.5315C25.8216 44.7871 26.7416 44.7832 26.9939 44.7832C27.914 44.7832 28.1662 44.0663 28.1662 43.7098C28.1662 42.9929 27.5801 42.8146 27.5801 42.4582C27.5801 42.1017 27.9956 41.7412 28.6671 41.7412C30.0101 41.7412 30.2624 42.4582 30.2624 43.4404V44.7832C27.7507 45.5912 25.484 46.3952 25.484 48.3637C25.484 49.7936 26.5747 50.4234 27.4131 50.4234C27.8323 50.4234 29.09 50.3362 30.2661 49.0807C30.3477 49.6193 30.5146 50.4234 31.7723 50.4234C32.5254 50.4234 33.1969 49.9758 33.7015 49.35L33.4492 48.9024ZM43.5068 50.154H39.3146V49.7065C39.9008 49.6193 40.1531 49.2589 40.1531 48.542V43.9791C40.1531 43.4444 40.1531 42.3671 39.1477 42.3671C38.4762 42.3671 37.7231 43.3533 37.7231 43.5315V48.542C37.7231 48.9896 37.7231 49.6154 38.5615 49.7065V50.154H34.2839V49.7065C34.9554 49.5282 35.2077 49.4411 35.2077 48.542V42.9057C35.2077 42.1017 34.9554 41.9195 34.2839 41.8323V41.3848H37.7193V42.7275C37.9716 42.2799 38.7284 41.1194 40.2347 41.1194C41.2401 41.1194 42.6647 41.7452 42.6647 43.8048V48.5459C42.6647 49.0846 42.6647 49.6193 43.5068 49.7104V50.154ZM49.2053 42.1928H47.5284V47.9201C47.5284 48.1895 47.5284 48.9935 48.2815 48.9935C48.7861 48.9935 49.12 48.4548 49.2869 48.0073L49.7024 48.1855C49.3686 49.0807 48.6971 50.3323 47.1055 50.3323C45.1763 50.3323 45.0947 48.7242 45.0947 48.3637V42.1928H44.1746V41.6541C45.0947 40.8501 45.9332 39.9549 47.1055 38.1646H47.5247V41.3848H49.2016L49.2053 42.1928ZM52.6407 44.7871C52.6407 42.1017 53.2269 41.7452 53.8984 41.7452C54.5699 41.7452 54.8185 42.1928 54.9038 42.6404C55.0707 43.179 55.0707 44.1613 55.0707 44.7871H52.6407ZM56.9146 47.7379C56.577 48.1855 55.9092 48.9896 54.9038 48.9896C53.2269 48.9896 52.8077 47.1082 52.7223 45.5001H57.2485C57.1669 44.4267 56.9146 41.1154 53.8984 41.1154C51.806 41.1154 50.2107 42.9057 50.2107 45.7654C50.2107 48.9856 51.9729 50.4194 53.8168 50.4194C55.2414 50.4194 56.2468 49.7936 57.3338 48.0033L56.9146 47.7379ZM62.1938 50.154H57.92V49.7065C58.6768 49.7065 58.8438 48.9896 58.8438 48.542V38.7904C58.8438 38.6122 58.8437 37.7171 57.92 37.7171V37.2695H61.3591V48.542C61.3591 49.0807 61.526 49.7065 62.1975 49.7065L62.1938 50.154ZM83.4815 50.154H77.5307V49.6193C78.6214 49.5322 79.126 49.4411 79.126 48.1895V38.6122L74.5999 50.154H74.1769L69.7361 38.9687H69.6545V47.7379C69.6545 49.0807 69.9884 49.5282 71.4984 49.6193V50.158H67.3061V49.6193C68.7307 49.5322 68.9014 49.2629 68.9014 48.0984V39.0598C68.9014 38.0735 68.5638 37.8082 67.3061 37.7171V37.2695H71.8323L75.4383 46.217L78.9553 37.2695H83.4815V37.7171C82.4761 37.8042 81.8899 37.8953 81.8899 39.5073V47.9201C81.8899 49.4411 82.3091 49.4411 83.4815 49.6193V50.154ZM86.7499 44.7871C86.7499 42.1017 87.4214 41.7452 88.0892 41.7452C88.6754 41.7452 88.9277 42.1928 89.0093 42.6404C89.1762 43.179 89.1762 44.1613 89.1762 44.7871H86.7499ZM91.0201 47.7379C90.6862 48.1855 90.1 48.9896 89.0093 48.9896C87.3361 48.9896 86.9169 47.1082 86.8315 45.5001H91.3577C91.2761 44.4267 91.1091 41.1154 88.0076 41.1154C85.9115 41.1154 84.3199 42.9057 84.3199 45.7654C84.3199 48.9856 86.1638 50.4194 87.9223 50.4194C89.3469 50.4194 90.3523 49.7936 91.443 48.0033L91.0201 47.7379ZM97.7276 48.0073C97.7276 48.1855 97.0562 49.35 96.303 49.35C94.8784 49.35 94.8784 46.8468 94.8784 45.7694C94.8784 43.892 95.1307 42.1928 96.3884 42.1928C97.3938 42.1928 97.7276 43.3573 97.7276 43.3573V48.0073ZM101.248 49.35C100.243 49.2629 100.243 48.7242 100.243 48.1895V37.2695H96.3884V37.7171C97.3938 37.8042 97.7276 37.8042 97.7276 38.7904V42.2799C97.3084 41.8323 96.7185 41.1194 95.6315 41.1194C93.9546 41.1194 92.1924 42.7315 92.1924 46.0427C92.1924 48.8153 93.8693 50.4234 95.2939 50.4234C96.6332 50.4234 97.1378 49.8847 97.8093 49.1718V50.3362C98.9 50.0669 99.0669 50.0669 101.248 49.7104V49.35ZM106.19 50.154H101.92V49.7065C102.591 49.5282 102.925 49.4411 102.925 48.542V42.9057C102.925 42.1017 102.677 41.9195 101.92 41.8323V41.3848H105.355V48.542C105.355 49.1678 105.522 49.6154 106.194 49.7065V50.154H106.19ZM104.098 37.0001C104.936 37.0001 105.522 37.626 105.522 38.434C105.531 38.6362 105.501 38.8383 105.432 39.0272C105.364 39.2161 105.259 39.3876 105.125 39.5308C104.991 39.674 104.83 39.7857 104.653 39.8587C104.476 39.9318 104.287 39.9645 104.098 39.9549C103.344 39.9549 102.758 39.3291 102.758 38.434C102.755 38.2451 102.788 38.0576 102.854 37.8824C102.92 37.7073 103.019 37.5481 103.144 37.4144C103.269 37.2806 103.417 37.1751 103.581 37.1039C103.745 37.0327 103.921 36.9975 104.098 37.0001ZM114.322 48.3637C113.484 49.6154 112.311 50.4234 110.887 50.4234C108.624 50.4234 107.032 48.3637 107.032 46.0427C107.032 42.2839 109.629 41.1194 111.302 41.1194C112.56 41.1194 114.07 41.8363 114.07 43.179C114.07 44.4306 112.979 44.4306 112.812 44.4306C111.807 44.4306 111.807 43.5355 111.807 42.4621C111.807 41.9234 111.388 41.7452 111.054 41.7452C109.714 41.7452 109.548 44.0702 109.548 44.8782C109.548 47.5637 110.635 49.0846 112.059 49.0846C113.065 49.0846 113.569 48.5459 113.992 48.1023L114.322 48.3637ZM119.768 48.1855C119.516 48.542 119.097 49.0807 118.511 49.0807C117.839 49.0807 117.587 48.3637 117.587 47.7379C117.587 46.1298 119.349 45.5912 119.768 45.504V48.1855ZM122.955 48.9024L122.785 49.0807C122.703 49.1678 122.703 49.1678 122.618 49.1678C122.198 49.1678 122.198 48.8113 122.198 48.7242V43.7098C122.198 41.9195 120.607 41.1154 118.681 41.1154C116.418 41.1154 115.331 42.276 115.331 43.5315C115.331 44.7871 116.251 44.7832 116.504 44.7832C117.424 44.7832 117.672 44.0663 117.672 43.7098C117.672 42.9929 117.171 42.8146 117.171 42.4582C117.171 42.1017 117.587 41.7412 118.177 41.7412C119.516 41.7412 119.772 42.4582 119.772 43.4404V44.7832C117.257 45.5872 114.994 46.3913 114.994 48.3598C114.994 49.7896 116.084 50.4194 116.923 50.4194C117.342 50.4194 118.6 50.3323 119.776 49.0767C119.857 49.6154 120.024 50.4194 121.282 50.4194C122.035 50.4194 122.707 49.9718 123.211 49.346L122.955 48.9024ZM127.982 50.154H123.708V49.7065C124.461 49.7065 124.628 48.9896 124.628 48.542V38.7904C124.628 38.6122 124.628 37.7171 123.708 37.7171V37.2695H127.144V48.542C127.144 49.0807 127.314 49.7065 127.986 49.7065L127.982 50.154ZM145.078 47.7379C143.738 49.2589 142.395 50.5105 140.136 50.5105C135.944 50.5105 133.684 47.3815 133.684 43.8009C133.684 39.951 136.281 37.0001 140.054 37.0001C141.646 37.0001 142.985 37.8953 143.49 37.8953C143.909 37.8953 144.076 37.5388 144.243 37.0001H144.747V41.4759H144.328C143.657 39.8638 142.15 37.626 140.14 37.626C137.543 37.626 136.871 40.4896 136.871 43.7098C136.871 44.8743 136.953 46.6646 137.624 47.9162C137.915 48.4046 138.309 48.813 138.775 49.1082C139.241 49.4035 139.766 49.5772 140.307 49.6154C141.731 49.6154 143.071 48.9896 144.58 47.1993L145.078 47.7379ZM148.765 45.7694C148.765 43.6226 148.847 41.7452 150.194 41.7452C151.281 41.7452 151.533 42.8186 151.533 45.7694C151.533 48.1855 151.451 49.7976 150.194 49.7976C148.765 49.7936 148.765 47.8251 148.765 45.7694ZM146.168 45.7694C146.168 48.2766 147.678 50.4234 150.194 50.4234C152.62 50.4234 154.215 48.2766 154.215 45.7694C154.215 43.084 152.538 41.1194 150.194 41.1194C147.678 41.1194 146.168 43.3533 146.168 45.7694ZM159.828 50.154H155.132V49.7065C155.718 49.5282 156.055 49.4411 156.055 48.542V42.9057C156.055 42.0106 155.636 41.9195 155.132 41.8323V41.3848H158.485V42.9057C158.901 42.2799 159.654 41.1154 160.83 41.1154C162.088 41.1154 162.34 42.1888 162.34 42.6364C162.34 43.084 162.091 43.892 161.168 43.892C160.162 43.892 160.162 42.7315 159.572 42.7315C159.324 42.7315 158.567 43.179 158.567 44.6089V48.1895C158.567 49.35 158.734 49.6193 159.825 49.7104L159.828 50.154ZM166.113 43.5315C166.113 43.2622 166.866 42.1888 167.619 42.1888C168.959 42.1888 169.044 44.2485 169.044 45.8565C169.044 46.9299 168.962 49.346 167.538 49.346C166.532 49.346 166.113 48.1855 166.113 48.1855V43.5315ZM167.538 53.6435C166.699 53.5564 166.113 53.3742 166.113 51.9404V49.2589C166.785 49.8847 167.282 50.3323 168.205 50.3323C170.049 50.3323 171.641 48.6331 171.641 45.5001C171.641 42.4582 169.882 41.1154 168.372 41.1154C166.948 41.1154 166.443 42.0106 166.113 42.6364V41.3848H162.674V41.8323C163.516 41.9195 163.679 42.1888 163.679 42.9057V52.479C163.679 53.2831 163.512 53.4653 162.674 53.5524V54H167.538V53.6435ZM174.494 47.2032C175.332 47.2032 176 47.9201 176 48.8153C176 49.7104 175.328 50.3362 174.494 50.3362C173.57 50.3362 172.984 49.7104 172.984 48.8153C172.984 47.9162 173.57 47.2032 174.494 47.2032Z" fill="white"/>
</g>
</svg>
