<svg width="190" height="90" viewBox="0 0 190 90" fill="none" xmlns="http://www.w3.org/2000/svg">
<g id="icon-accredo-health">
<rect width="190" height="90" rx="12" fill="#EAEAEA"/>
<path id="Union" fill-rule="evenodd" clip-rule="evenodd" d="M146.966 36.5948C147.228 36.5814 147.494 36.5723 147.767 36.5715C149.354 36.5715 151.292 36.733 153.204 37.6095C151.462 27.113 124.741 21.5496 92.913 25.1619C75.2101 27.1722 59.6066 31.6025 49.3008 36.9735C59.1755 32.1652 73.4989 28.2342 89.6428 26.4022C118.368 23.1418 142.756 27.6672 146.966 36.5948ZM45.6606 46.9721H42.2432L43.9881 43.0171L45.6606 46.9721ZM35.068 51.7021H40.0367L40.9096 49.7651H46.9441L47.7677 51.7021H53.9241L46.9448 37.6906H42.3157L35.068 51.7021ZM93.4933 40.5696C95.0072 40.5696 97.3532 40.5696 97.3532 42.3112C97.3532 43.8526 95.4722 44.2729 93.4933 44.3131V40.5696ZM87.3059 51.7021H93.4933V46.0463L94.91 46.0061C96.3267 48.6165 96.6931 49.2497 98.2478 51.7021H104.562C102.287 48.2202 101.682 47.1533 100.763 45.2382L100.788 45.227C101.65 44.8472 103.641 43.9697 103.641 41.6308C103.641 40.8502 103.376 39.5189 101.803 38.6065C100.546 37.8732 98.9742 37.6955 97.2806 37.6955H87.3059V51.7021ZM117.949 37.6913V40.8439H111.188V43.0523H116.786V45.8904H111.188V48.5495H118.895V51.7014H104.909V37.6913H117.949ZM69.9884 48.9316C69.1888 49.7834 67.0317 52.0638 61.8453 52.0638C55.7875 52.0638 52.7822 48.4564 52.7822 44.9096C52.7822 41.5807 55.6903 37.3387 62.4279 37.3387C66.8169 37.3387 68.7351 39.2042 69.8998 40.3369L69.9165 40.3531L67.565 41.8381C66.8626 41.1252 65.9172 40.2128 63.9059 40.2128C60.5138 40.2128 59.2528 42.6102 59.2528 44.6121C59.2528 47.3261 61.3141 48.8717 63.7854 48.8717C65.87 48.8717 67.275 47.8161 67.8929 47.3519L67.9545 47.3056L69.9884 48.9316ZM78.4296 52.0638C83.616 52.0638 85.7731 49.7834 86.5727 48.9316L84.5368 47.3056L84.4765 47.3509C83.8599 47.8146 82.4544 48.8717 80.3683 48.8717C77.8963 48.8717 75.8364 47.3261 75.8364 44.6121C75.8364 42.6102 77.096 40.2128 80.4888 40.2128C82.5008 40.2128 83.4455 41.1252 84.1486 41.8381L86.4994 40.3531L86.4816 40.3358C85.3168 39.203 83.3998 37.3387 79.0115 37.3387C72.2746 37.3387 69.3658 41.5807 69.3658 44.9096C69.3658 48.4564 72.3718 52.0638 78.4296 52.0638ZM37.2696 56.9637C37.1921 57.2747 37.1921 57.2895 37.7028 57.3297L37.6676 57.4827H35.7458L35.781 57.3297L35.8335 57.3252C36.2928 57.2855 36.3179 57.2834 36.3974 56.9637L36.706 55.7241H35.0159L34.7137 56.9637C34.6362 57.2747 34.6362 57.2895 35.1463 57.3297L35.1103 57.4827H33.1892L33.2244 57.3297L33.2972 57.3235H33.2972H33.2972H33.2972C33.7382 57.2859 33.7679 57.2833 33.8416 56.9637L34.434 54.5353C34.5115 54.2215 34.5115 54.206 34.0015 54.1665L34.0367 54.0142H35.9585L35.9233 54.1665L35.8712 54.171C35.4115 54.2107 35.3864 54.2128 35.3062 54.5353L35.0751 55.478H36.7644L36.9899 54.5353C37.0674 54.2215 37.0674 54.206 36.5573 54.1665L36.5925 54.0142H38.5137L38.4784 54.1665L38.4263 54.171C37.9666 54.2107 37.9415 54.2128 37.862 54.5353L37.2696 56.9637ZM40.4785 56.0626C40.5559 55.679 41.0216 55.1135 41.3985 55.1135C41.4823 55.1135 41.5894 55.1833 41.5894 55.3201C41.5901 55.605 41.3323 56.186 40.4785 56.0626ZM41.7796 56.841C41.4281 57.0448 41.1597 57.188 40.9089 57.188C40.4193 57.188 40.3002 56.6782 40.4369 56.1916C41.3985 56.3651 42.1615 55.8842 42.1615 55.4089C42.1615 55.1135 41.9353 54.9527 41.6261 54.9527C40.4552 54.9527 39.5993 55.8468 39.5993 56.6232C39.5993 56.9109 39.6993 57.5405 40.4129 57.5405C40.6165 57.5405 40.9512 57.4721 41.2731 57.3064L41.893 56.9863L41.7796 56.841ZM45.9811 55.2207C45.7198 56.2184 44.9921 57.0491 44.6983 57.0491C44.4651 57.0491 44.4172 56.8312 44.4109 56.6337C44.4052 56.2635 44.6384 55.2298 45.4824 55.2207H45.9811ZM46.8237 55.0091H46.0044C44.3763 55.0091 43.6035 55.9568 43.6035 56.8312C43.6035 57.1774 43.7571 57.5391 44.1284 57.5391C44.5137 57.5391 45.1844 57.0632 45.6374 56.4363L45.6613 56.4462L45.5007 56.9807C45.4408 57.1781 45.4345 57.3121 45.4831 57.391C45.5246 57.4608 45.5958 57.5236 45.7381 57.549L46.9012 57.0547L46.83 56.9214L46.5623 57.0307C46.3306 57.1294 46.2601 57.0744 46.3306 56.8382L46.8237 55.0091ZM49.4873 56.7339C49.4225 56.9821 49.4338 57.0702 49.5169 57.0702C49.5641 57.0702 49.6296 57.0512 49.6952 57.0265L49.9614 56.913L50.0277 57.0462L48.8744 57.5405C48.7328 57.5158 48.6624 57.451 48.6208 57.3819C48.5736 57.3029 48.5793 57.1647 48.6328 56.9715L49.3049 54.3809L49.3079 54.3692C49.3301 54.2841 49.3505 54.2057 49.3169 54.1538C49.2936 54.0643 49.1745 54.0643 49.0978 54.0748L48.8033 54.0939L48.8392 53.9557L50.2411 53.8506L49.4873 56.7339ZM53.9883 55.1248L53.7861 55.2439H53.0978L52.7357 56.6246C52.6117 57.1048 52.7892 57.188 52.9794 57.188C53.1337 57.188 53.3817 57.1238 53.5247 57.0744L53.5839 57.243L52.3658 57.5398C51.9502 57.5398 51.7797 57.2825 51.891 56.8418L52.301 55.2439H51.7494L51.8206 55.0091H52.3722L52.4828 54.5339C52.6934 54.4937 52.9611 54.3809 53.1091 54.2363H53.3768L53.1513 55.0091H54.0171L53.9883 55.1248ZM55.9932 54.3809L56.002 54.3479C56.0228 54.2712 56.0417 54.2014 56.0108 54.1538C55.9805 54.0643 55.8678 54.0643 55.791 54.0748L55.4888 54.0939L55.5311 53.9557L56.9365 53.8506L56.3609 55.9667L56.3849 55.9773C56.7533 55.4921 57.56 54.9513 58.1257 54.9513C58.4208 54.9513 58.5561 55.0888 58.4265 55.5309L58.0524 56.8284C58.0108 56.9821 58.0228 57.0709 58.1059 57.0709C58.1653 57.0657 58.2234 57.0507 58.2778 57.0265L58.5441 56.913L58.616 57.0462L57.4536 57.5412C57.3106 57.5166 57.2458 57.4517 57.2042 57.3826C57.157 57.3036 57.1626 57.164 57.2218 56.9715L57.5832 55.789C57.6494 55.5556 57.7079 55.3384 57.5001 55.3384C57.133 55.3384 56.3313 56.1655 56.0763 57.0759L55.9629 57.4827H55.1739L55.9932 54.3809ZM59.9045 58.1843C60.458 57.7314 60.481 57.3977 60.4977 57.1562C60.4996 57.1284 60.5014 57.1019 60.504 57.0766C60.5089 56.9969 60.9654 56.7437 61.019 56.7437C61.1324 56.7437 61.3029 57.0258 61.2557 57.1844C61.2195 57.3168 60.7132 57.81 60.3744 58.1401C60.271 58.2408 60.1832 58.3263 60.1292 58.3817L59.9045 58.1843ZM67.2811 56.9623C67.2043 57.2747 67.2043 57.2895 67.7143 57.3297L67.6791 57.4827H65.7566L65.7925 57.3297L65.8652 57.3235C66.3063 57.2859 66.3366 57.2833 66.4089 56.9623L67.0021 54.5332C67.0916 54.2109 67.0556 54.2053 66.5688 54.1658L66.6041 54.0135H68.528L68.4921 54.1658C67.9638 54.2097 67.9636 54.2102 67.8781 54.5217L67.8749 54.5332L67.2811 56.9623ZM70.1779 55.55L70.1814 55.5365C70.21 55.4277 70.2373 55.3236 70.1067 55.3236C70.0638 55.3236 70.0175 55.3336 69.966 55.3448L69.9354 55.3514L69.9053 55.3575L69.6495 55.4174L69.6023 55.2989L70.9317 54.957C71.1036 54.9414 71.1036 55.0543 71.0676 55.1861L70.8535 55.966L70.8774 55.9766C71.2452 55.4914 72.0525 54.9506 72.6189 54.9506C72.9134 54.9506 73.0486 55.0881 72.919 55.5302L72.5456 56.8276C72.5041 56.9814 72.5161 57.0702 72.5992 57.0702C72.6585 57.0649 72.7166 57.0499 72.7711 57.0258L73.0374 56.9123L73.1092 57.0455L71.9468 57.5405C71.8045 57.5158 71.7397 57.451 71.6974 57.3819C71.6502 57.3029 71.6566 57.1633 71.7151 56.9708L72.0765 55.7883C72.142 55.5549 72.2012 55.3377 71.9933 55.3377C71.6263 55.3377 70.8246 56.1648 70.5696 57.0751L70.4562 57.482H69.6615L70.1779 55.55ZM76.9416 55.4689C76.8345 55.306 76.6626 55.1614 76.4492 55.1614C75.8257 55.1614 75.4347 55.9589 75.4347 56.5449C75.4347 56.8608 75.5531 57.188 75.9567 57.188C76.2061 57.188 76.4724 57.0448 76.8169 56.8418L76.9303 56.9856L76.3139 57.3057C75.9927 57.4714 75.6616 57.5398 75.5066 57.5398C74.7626 57.5398 74.6387 56.9355 74.6513 56.6239C74.645 56.5534 74.6809 55.6169 75.8032 55.1417C76.0934 55.019 76.4323 54.9499 76.6457 54.9499C76.8416 54.9499 77.0909 54.9845 77.2325 55.0578L77.1494 55.404L76.9416 55.4689ZM79.8504 57.3995C79.4566 57.3995 79.3967 56.9391 79.3967 56.681C79.3967 56.0421 79.7489 55.0902 80.2667 55.0902C80.3738 55.0902 80.6951 55.1057 80.6951 55.6155C80.6958 56.4737 80.3809 57.3995 79.8504 57.3995ZM79.7363 57.5398C80.8085 57.5398 81.5045 56.6619 81.5045 55.9089C81.5045 55.3941 81.1973 54.9506 80.3689 54.9506C79.3735 54.9506 78.5894 55.7262 78.5894 56.5385C78.5894 57.0625 78.9261 57.5398 79.7363 57.5398ZM83.0931 57.482L83.5968 55.5542L83.6032 55.5305C83.632 55.4253 83.6591 55.3264 83.5313 55.3264C83.4885 55.3264 83.4416 55.337 83.3895 55.3487L83.3895 55.3487C83.3703 55.3531 83.3504 55.3575 83.3298 55.3617L83.0748 55.4209L83.0276 55.3025L84.3562 54.957C84.5225 54.9414 84.5225 55.0557 84.4936 55.1882L84.2907 55.8214H84.3203C84.8008 55.2136 85.0621 54.9506 85.5785 54.9506L85.4418 55.4992L85.2291 55.6177C85.162 55.5736 85.0838 55.5496 85.0037 55.5486C84.8953 55.5495 84.789 55.5784 84.6951 55.6325C84.4401 55.8003 84.1611 56.3834 84.0596 56.7741L83.8828 57.482H83.0931ZM88.1104 55.4463C88.2943 55.3229 88.5669 55.2439 88.6979 55.2439C88.9107 55.2439 89.0241 55.4364 89.0241 55.6994C89.0241 56.7536 88.4373 57.3177 87.885 57.3177C87.7779 57.3177 87.7004 57.3029 87.6292 57.2832L88.1104 55.4463ZM86.7698 55.966L87.2439 55.7439L86.5915 58.2626L86.5851 58.2824C86.5526 58.3815 86.5287 58.4546 86.4732 58.5009C86.402 58.546 86.2661 58.5665 86.0695 58.5714L86.0343 58.7237H87.8737L87.9089 58.5714C87.4588 58.5665 87.3813 58.527 87.3637 58.4762C87.3397 58.4226 87.3517 58.343 87.3756 58.2576L87.5778 57.4806C88.7761 57.5462 89.8336 56.8326 89.8336 55.6839V55.6786C89.8336 55.4816 89.8338 54.9499 89.2439 54.9499C89.0671 54.9499 88.8297 54.9894 88.5634 55.0923L88.1597 55.2439L88.326 54.6439L87.4947 54.8413L87.3052 55.5401L86.7543 55.7721L86.7698 55.966ZM92.6113 57.3995C92.2182 57.3995 92.1583 56.9391 92.1583 56.681C92.1583 56.0421 92.5106 55.0902 93.0291 55.0902C93.1362 55.0902 93.4574 55.1057 93.4574 55.6155C93.4581 56.4737 93.1425 57.3995 92.6113 57.3995ZM92.4986 57.5398C93.5701 57.5398 94.2654 56.6619 94.2654 55.9089C94.2654 55.3941 93.959 54.9506 93.1298 54.9506C92.1344 54.9506 91.351 55.7262 91.351 56.5385C91.351 57.0625 91.687 57.5398 92.4986 57.5398ZM95.8547 57.482L96.3584 55.5542L96.3649 55.5303C96.3937 55.4252 96.4207 55.3264 96.2936 55.3264C96.2503 55.3264 96.2031 55.337 96.1507 55.3488C96.1317 55.3531 96.1119 55.3576 96.0914 55.3617L95.8371 55.4209L95.7892 55.3025L97.1186 54.957C97.2848 54.9414 97.2848 55.0557 97.2545 55.1882L97.0538 55.8214H97.0826C97.5631 55.2136 97.8245 54.9506 98.3401 54.9506L98.2042 55.4992L97.9907 55.6177C97.9239 55.5732 97.8455 55.5492 97.7653 55.5486C97.6596 55.5486 97.5342 55.5838 97.4567 55.6325C97.201 55.8003 96.9227 56.3834 96.8213 56.7741L96.6438 57.482H95.8547ZM101.88 55.2207C101.619 56.2184 100.892 57.0491 100.598 57.0491C100.364 57.0491 100.318 56.8312 100.312 56.6337C100.305 56.2635 100.539 55.2298 101.383 55.2207H101.88ZM102.723 55.0091H101.905C100.276 55.0091 99.5025 55.9568 99.5025 56.8312C99.5025 57.1774 99.6568 57.5391 100.028 57.5391C100.412 57.5391 101.083 57.0632 101.536 56.4363L101.561 56.4462L101.4 56.9807C101.341 57.1781 101.335 57.3121 101.382 57.391C101.425 57.4608 101.495 57.5236 101.636 57.549L102.8 57.0547L102.728 56.9214L102.461 57.0307C102.23 57.1294 102.158 57.0744 102.23 56.8382L102.723 55.0091ZM106.755 55.1248L106.554 55.2439H105.866L105.503 56.6246C105.38 57.1048 105.556 57.188 105.746 57.188C105.901 57.188 106.149 57.1238 106.292 57.0744L106.351 57.243L105.133 57.5398C104.718 57.5398 104.547 57.2825 104.66 56.8418L105.069 55.2439H104.518L104.589 55.0091H105.139L105.25 54.5339C105.461 54.4937 105.728 54.3809 105.877 54.2363H106.144L105.918 55.0091H106.784L106.755 55.1248ZM108.82 56.0626C108.897 55.679 109.362 55.1135 109.739 55.1135C109.822 55.1135 109.93 55.1833 109.93 55.3201C109.931 55.605 109.673 56.186 108.82 56.0626ZM110.12 56.841C109.77 57.0448 109.5 57.188 109.25 57.188C108.76 57.188 108.642 56.6782 108.778 56.1916C109.739 56.3651 110.502 55.8842 110.502 55.4089C110.502 55.1135 110.276 54.9527 109.966 54.9527C108.795 54.9527 107.939 55.8468 107.939 56.6232C107.939 56.9109 108.04 57.5405 108.754 57.5405C108.956 57.5405 109.291 57.4721 109.614 57.3064L110.235 56.9863L110.12 56.841ZM114.328 55.2207C114.096 56.2184 113.332 57.0491 113.039 57.0491C112.805 57.0491 112.759 56.8312 112.752 56.6337C112.74 56.2635 112.98 55.2298 113.823 55.2207H114.328ZM115.478 53.8499L114.072 53.955L114.03 54.0932L114.333 54.0741C114.41 54.0636 114.523 54.0636 114.553 54.1531C114.584 54.2011 114.565 54.2716 114.544 54.3491L114.535 54.3802L114.369 55.0091C112.699 55.0091 111.945 55.9568 111.945 56.8312C111.945 57.1774 112.092 57.5391 112.462 57.5391C112.853 57.5391 113.524 57.0632 113.977 56.4363L114 56.4462L113.846 56.9807C113.781 57.1781 113.781 57.3121 113.822 57.391C113.87 57.4608 113.935 57.5236 114.078 57.549L115.241 57.0547L115.169 56.9214L114.902 57.0307C114.671 57.1294 114.604 57.0744 114.671 56.8382L115.478 53.8499ZM93.3349 63.8746C113.158 61.6253 130.235 56.2128 139.7 49.8949C140.36 50.5571 141.124 51.1075 141.96 51.5244C131.711 57.2796 115.399 62.0808 96.7594 64.1962C82.0203 65.8687 68.3787 65.5733 57.8031 63.7322C67.6714 65.2236 80.0386 65.3843 93.3349 63.8746ZM147.644 37.2781C141.686 37.2978 138.34 40.5224 138.34 44.5945C138.34 49.2722 142.312 52.1202 147.79 52.1202C149.845 52.1202 151.611 51.7395 153.399 50.7163C154.631 50.0147 157 48.3852 157 44.6156C157 41.6315 155.525 40.2403 154.68 39.5352C152.334 37.5601 149.676 37.2781 147.644 37.2781ZM143.505 44.6911C143.505 44.1397 143.614 43.5937 143.824 43.0844C144.035 42.575 144.344 42.1122 144.734 41.7224C145.123 41.3326 145.586 41.0234 146.095 40.8126C146.604 40.6017 147.149 40.4933 147.7 40.4935C148.812 40.4935 149.879 40.9357 150.666 41.7229C151.452 42.5101 151.894 43.5778 151.894 44.6911C151.894 45.8043 151.452 46.872 150.666 47.6592C149.879 48.4464 148.812 48.8887 147.7 48.8887C147.149 48.8888 146.604 48.7802 146.095 48.5693C145.586 48.3584 145.124 48.0493 144.734 47.6595C144.345 47.2697 144.035 46.8069 143.825 46.2976C143.614 45.7883 143.505 45.2424 143.505 44.6911ZM126.27 40.8439C127.782 40.8439 128.854 40.8439 129.78 41.6569C130.78 42.5291 131.048 43.8773 131.048 44.6706C131.048 46.6936 129.854 47.7844 129.146 48.1617C128.317 48.5974 127.514 48.5974 126.27 48.5974V40.8439ZM119.99 51.6986H128.026C130.219 51.6986 133.155 51.6986 135.431 49.5917C136.934 48.2012 137.612 46.2973 137.612 44.5916C137.612 42.0341 136.183 39.8983 134.076 38.7751C132.404 37.888 130.633 37.6913 127.221 37.6913H119.99V51.6986ZM117.389 53.7744C117.766 53.7744 117.803 53.9973 117.809 54.1164L117.673 54.1171C117.665 53.9493 117.527 53.8971 117.406 53.8971C117.314 53.8971 117.16 53.9232 117.16 54.0868C117.16 54.1778 117.224 54.2081 117.288 54.2229L117.596 54.2941C117.736 54.3266 117.84 54.4098 117.84 54.5818C117.84 54.8357 117.603 54.9048 117.419 54.9048C117.221 54.9048 117.143 54.8462 117.095 54.8032C117.003 54.7207 116.986 54.6312 116.986 54.5296H117.123C117.123 54.7242 117.28 54.7814 117.417 54.7814C117.522 54.7814 117.699 54.7546 117.699 54.6001C117.699 54.4873 117.646 54.4521 117.468 54.4091L117.249 54.359C117.178 54.3435 117.019 54.2941 117.019 54.1059C117.019 53.9373 117.129 53.7744 117.389 53.7744ZM118.912 54.2419V54.878H119.053V53.8005H118.846L118.539 54.7123H118.536L118.228 53.8005H118.018V54.878H118.159V54.2419L118.157 53.9754H118.159L118.463 54.878H118.607L118.912 53.9726H118.914C118.914 54.0377 118.913 54.1171 118.912 54.174C118.912 54.2058 118.912 54.2306 118.912 54.2419Z" fill="white"/>
</g>
</svg>
