<svg width="190" height="90" viewBox="0 0 190 90" fill="none" xmlns="http://www.w3.org/2000/svg">
<g id="icon-first-health">
<rect width="190" height="90" rx="12" fill="#EAEAEA"/>
<path id="Union" fill-rule="evenodd" clip-rule="evenodd" d="M41.8696 27C47.5807 27 52.1773 31.5965 52.1773 38.0042C52.1773 45.5265 42.705 53.0488 36.2981 55.2773V62.3823C31.1438 59.7358 20 50.2627 20 38.7016C20 32.1542 24.8758 27 30.8654 27C32.8154 27 34.7662 27.5577 36.2981 28.8112C37.9688 27.4181 39.9196 27 41.8696 27ZM36.2973 55.1377V48.73C39.2223 47.3377 45.9084 43.0188 45.9092 38.2827C45.9092 35.4965 43.8196 33.1284 41.0334 33.1284C38.9438 33.1284 36.9938 34.5215 36.2973 36.4723C35.6007 34.5215 33.7904 33.1284 31.5611 33.1284C28.6353 33.1284 26.4069 35.775 26.4069 38.9792C26.4069 45.1084 32.118 51.6558 36.2973 55.1377ZM167.656 47.8946V48.8704H168.212C168.629 48.8704 168.909 48.7308 168.909 48.3127C168.909 47.8946 168.63 47.8946 168.212 47.8946H167.656ZM168.074 49.2877H167.656H167.655V50.68H167.099V47.4765H168.353C169.049 47.4765 169.467 47.7558 169.467 48.3119C169.467 49.0084 169.188 49.1472 168.63 49.2877L169.606 50.68H168.91L168.074 49.2877ZM168.213 46.0834C169.745 46.0834 171 47.1981 171 49.0092C171 50.68 169.745 51.935 168.213 51.935C166.542 51.935 165.289 50.68 165.289 49.0092C165.289 47.1981 166.681 46.0834 168.213 46.0834ZM168.212 51.3773C169.467 51.3773 170.441 50.4031 170.441 49.0092C170.441 47.6153 169.467 46.6412 168.212 46.6412C166.959 46.6412 165.985 47.6153 165.985 49.0092C165.985 50.2627 166.82 51.3773 168.212 51.3773ZM90.9027 43.2981C91.0415 43.2981 91.1811 43.2981 91.1811 42.4619V40.792C91.1811 40.6524 89.788 39.9558 88.5346 39.9558C86.4458 39.9558 84.0777 40.7912 84.0777 43.717C84.0777 45.4248 85.5318 46.1511 86.9543 46.8616C88.3162 47.5418 89.6492 48.2076 89.6492 49.7066C89.6492 50.8212 88.6742 51.3773 87.42 51.3773C85.6057 51.3773 85.1004 50.0683 84.7826 49.2451C84.6368 48.8674 84.5305 48.592 84.3553 48.592C83.9373 48.592 83.9373 49.5661 83.9373 50.96C83.9373 51.9358 85.7484 52.3539 87.1415 52.3539C88.6742 52.3539 91.7388 51.7962 91.8777 48.4539C91.8777 45.9725 89.9923 45.0545 88.3881 44.2735C87.2003 43.6951 86.1665 43.1918 86.1665 42.1843C86.1665 41.2093 87.1415 40.7912 87.9769 40.7912C89.4629 40.7912 89.9068 41.7777 90.2377 42.513C90.4343 42.9499 90.591 43.2981 90.9027 43.2981ZM64.5746 42.8792C63.7392 42.8792 63.5996 42.7404 63.5996 42.1827L63.6004 38.2827C63.6004 36.6383 63.8698 36.6116 65.2048 36.479L65.2719 36.4723C66.1073 36.4723 68.4762 36.6111 69.0331 38.0042C69.2392 38.2792 69.3437 38.6555 69.43 38.9664C69.5188 39.2863 69.5884 39.5369 69.7296 39.5369C70.1477 39.5369 70.1477 39.5369 70.1477 36.7508C70.1477 35.4973 69.8692 35.4973 69.0331 35.4973H59.9788C59.2823 35.4973 59.0039 35.6361 59.0039 36.0542C59.0039 36.3327 59.0039 36.4723 59.9788 36.4723C60.6762 36.6111 60.815 36.7508 60.815 37.7258V49.9842C60.815 50.9584 60.5366 51.0989 60.1185 51.0989C59.0039 51.0989 58.7254 51.2377 58.7254 51.5169C58.7254 51.9342 58.8642 52.073 59.1435 52.073H65.4115C65.9684 52.073 66.3865 51.9334 66.3865 51.655C66.3865 51.3765 66.1081 51.2377 65.4115 51.0989C64.0185 50.8196 63.74 50.6792 63.6004 49.1472V44.6904C63.6004 43.8542 63.7392 43.7154 65.1323 43.7154C67.3607 43.7154 67.64 44.6904 67.7788 45.2473C67.9176 45.805 68.0573 46.2231 68.3357 46.2231C68.615 46.3619 68.7538 45.805 68.7538 43.7154C68.7538 40.6507 68.6142 40.5111 68.3357 40.5111C68.028 40.5111 67.9468 40.8132 67.8143 41.3057C67.7668 41.4824 67.7127 41.6836 67.6392 41.9042C67.3607 42.4611 66.9426 42.8792 64.5746 42.8792ZM97.45 50.4023C96.3354 50.4023 95.9173 50.1231 95.9173 48.4523V42.7404C95.9173 42.6283 95.9148 42.5237 95.9124 42.4266C95.8974 41.7996 95.8899 41.4861 96.6146 41.4861H98.705C98.8431 41.4861 99.2612 41.4861 99.2612 40.7896C99.2612 40.2327 99.1223 40.093 98.5662 40.093H96.4758C96.0161 40.093 96.0203 39.3758 96.0241 38.7308C96.0272 38.2038 96.03 37.725 95.7793 37.725C95.5534 37.725 95.3273 38.0514 95.0129 38.5056C94.7463 38.8905 94.4162 39.3673 93.9689 39.8146C93.5711 40.212 93.1108 40.4832 92.7372 40.7033C92.3248 40.9464 92.0181 41.1271 92.0181 41.3465C92.0181 41.7646 92.2966 41.7646 93.1319 41.7646C93.4104 41.7646 93.4104 41.9042 93.4104 42.1827V49.2877C93.4104 51.5169 94.525 52.3523 96.0569 52.3523C97.7276 52.3523 99.1215 51.2377 99.1215 50.5411C99.1215 50.2619 98.9827 50.1231 98.8423 50.1231C98.796 50.1231 98.6878 50.1541 98.5434 50.1954C98.2544 50.2781 97.8208 50.4023 97.45 50.4023ZM79.5167 41.0369C79.898 40.6657 80.4854 40.0938 81.7088 40.0938C82.6838 40.0938 83.5192 40.9292 83.52 42.0438C83.52 42.4611 83.2415 43.5757 81.9881 43.5757C81.3661 43.5757 80.9611 43.1849 80.6034 42.8397C80.3205 42.5667 80.0672 42.3223 79.7596 42.3223C79.2019 42.3223 78.9235 43.0188 78.9235 44.2723V49.4257C78.9235 50.4015 79.2019 51.098 80.4562 51.098C80.4562 51.098 81.7088 51.098 81.57 51.6541C81.57 52.0722 81.4312 52.0722 81.0131 52.0722H69.7304C69.452 52.0722 69.3123 51.9334 69.3123 51.793C69.3123 51.5161 69.5916 51.3757 70.1485 51.2369C70.427 51.2369 70.7054 51.098 70.7054 51.098C70.9847 50.8188 71.1235 50.5395 71.1235 49.9834V43.7146C71.1235 42.7944 70.7014 42.6762 70.3218 42.57C70.0119 42.4832 69.7304 42.4044 69.7304 41.9034C69.7304 41.5918 69.9485 41.5417 70.4091 41.436C70.7715 41.3528 71.2842 41.2352 71.9589 40.9284C72.4649 40.5911 72.8178 40.2025 73.0484 39.9485C73.1986 39.7832 73.2969 39.6749 73.3519 39.6749C73.4908 39.6749 73.6304 39.6749 73.6304 39.8146V42.043V49.5645C73.6304 49.7613 73.6193 49.9248 73.6096 50.0674C73.5849 50.4302 73.5694 50.6583 73.7692 50.9584C73.7692 50.9584 74.1873 51.3765 74.883 51.3765C75.3213 51.3765 75.5941 51.1568 75.8401 50.9588C75.9856 50.8417 76.1216 50.7321 76.2769 50.68C76.6942 50.5411 76.4158 44.1334 76.4158 44.1334C76.4158 42.971 76.02 42.7981 75.7296 42.6713C75.5327 42.5854 75.3843 42.5206 75.4408 42.1827C75.4408 41.8723 75.826 41.6383 76.3672 41.3097C76.5536 41.1964 76.7586 41.0719 76.9727 40.9292C77.6059 40.5335 77.9245 40.1828 78.1326 39.9538C78.2907 39.7796 78.3851 39.6757 78.5054 39.6757C78.8731 39.6757 78.8526 40.1416 78.8332 40.5815C78.8158 40.9748 78.7994 41.3473 79.0623 41.3473C79.198 41.3473 79.3336 41.2153 79.5167 41.0369ZM148.99 50.4023C148.014 50.4023 147.458 50.1231 147.458 48.4523V42.7404C147.458 41.9042 147.458 41.4861 148.293 41.4861H150.384C150.522 41.4861 150.801 41.4861 150.94 40.7896C150.94 40.2327 150.801 40.093 150.243 40.093H148.155C147.625 40.093 147.629 39.3965 147.632 38.759C147.635 38.221 147.637 37.725 147.319 37.725C147.075 37.725 146.83 38.1067 146.501 38.6189C146.268 38.9818 145.993 39.4102 145.647 39.8146C145.238 40.2238 144.729 40.4992 144.316 40.7228C143.885 40.9561 143.558 41.133 143.558 41.3465C143.558 41.7646 143.976 41.7646 144.812 41.7646C144.95 41.7646 145.091 41.9042 145.091 42.1827L144.95 49.2877C144.95 51.5169 146.065 52.3523 147.597 52.3523C149.408 52.3523 150.661 51.2377 150.661 50.5411C150.661 50.2619 150.523 50.1231 150.384 50.1231C150.34 50.1231 150.257 50.1499 150.142 50.1869C149.885 50.2693 149.471 50.4023 148.99 50.4023ZM155.537 41.9042L155.398 41.7654L155.398 35.9154C155.398 35.3577 155.398 34.8008 154.98 34.6611C154.561 34.6611 151.636 35.9146 151.636 36.3327C151.636 36.5875 151.868 36.6676 152.134 36.7592C152.45 36.868 152.814 36.9931 152.889 37.4473V49.0092C152.889 50.4031 152.889 50.68 152.193 51.0997C152.095 51.1485 151.963 51.1801 151.826 51.2128C151.574 51.273 151.308 51.3367 151.218 51.5177C151.218 51.7946 151.357 52.0738 151.636 52.0738C152.279 51.9671 154.486 52.0245 155.726 52.0567C156.098 52.0664 156.383 52.0738 156.512 52.0738C156.93 52.0738 157.348 51.935 157.348 51.6558C157.348 51.5169 157.069 51.3765 156.792 51.3765C156.688 51.3251 156.585 51.2927 156.474 51.2581C156.287 51.1994 156.079 51.1342 155.816 50.9584C155.536 50.9584 155.398 50.8204 155.398 50.4023V44.1334C155.398 42.6007 157.069 42.0438 157.766 42.0438C160.377 42.0438 160.296 43.881 160.276 44.3396C160.275 44.3701 160.273 44.3945 160.273 44.4119V48.8696C160.273 50.1231 160.134 50.8196 159.716 50.9584C159.564 51.0594 159.376 51.1238 159.197 51.1848C158.884 51.2919 158.601 51.3886 158.601 51.655C158.601 51.9342 159.018 51.9342 159.436 51.9342C159.763 51.9342 160.949 51.9818 161.933 52.0213C162.628 52.0492 163.222 52.073 163.338 52.073C163.894 52.073 164.173 51.9334 164.173 51.655C164.173 51.3765 164.173 51.3765 163.477 51.0989C163.446 51.0783 163.416 51.0586 163.387 51.0393C163.02 50.7967 162.78 50.6383 162.78 50.1231V44.4119C162.78 41.2077 161.11 40.2327 159.019 40.2327C157.482 40.2327 156.292 41.2717 155.788 41.7114C155.653 41.8294 155.567 41.9042 155.537 41.9042ZM141.747 49.985C141.747 50.5411 141.886 50.68 142.723 50.9592C143.697 51.2377 143.697 51.2377 143.835 51.3789C143.791 51.3349 143.803 51.3608 143.831 51.4212C143.891 51.5512 144.026 51.8408 143.835 51.9366C143.511 52.1519 142.1 52.1168 141.027 52.0902C140.716 52.0825 140.434 52.0755 140.214 52.0755H136.035C135.082 52.0755 134.369 51.4307 133.961 51.0609C133.832 50.9444 133.733 50.8553 133.667 50.822C133.667 50.822 131.995 52.3539 130.045 52.3539C129.348 52.4927 127.956 52.0755 128.095 49.8462C128.203 47.2445 130.336 46.1613 132.064 45.2837C132.557 45.0333 133.018 44.7997 133.388 44.5523C133.945 44.2739 133.945 43.9954 133.945 43.2989C133.945 41.9058 133.527 40.9308 132.274 40.9308C131.438 41.0704 130.603 41.3481 130.324 42.742C130.185 43.717 129.348 44.4135 128.513 44.4135C127.957 44.2739 127.816 43.9954 127.816 43.5773C127.816 42.742 130.045 39.817 133.11 39.9558C135.48 39.9558 136.175 40.9308 136.175 42.4627V48.0342V48.7308C136.175 50.1247 136.732 50.6808 137.15 50.8212C137.568 50.96 137.847 50.96 138.265 50.8212C138.327 50.7902 138.381 50.766 138.431 50.7442C138.605 50.6672 138.713 50.6194 138.821 50.4031C139.1 50.1239 139.239 49.7066 139.239 48.4531V39.955C139.239 38.005 139.239 37.7266 138.821 37.4481C138.728 37.3547 138.604 37.277 138.48 37.1993C138.233 37.0448 137.986 36.8902 137.986 36.6119C137.986 36.231 138.506 36.0455 139.102 35.8329C139.378 35.7343 139.671 35.6298 139.936 35.4973C140.16 35.4221 140.547 35.1853 140.878 34.9829C141.161 34.8094 141.404 34.6611 141.468 34.6611C141.747 34.6611 141.747 34.9396 141.747 35.3577V49.985ZM130.324 49.1481C130.324 49.985 130.742 50.5411 131.438 50.68C133.388 50.9592 133.945 49.7058 133.806 47.0601V47.06C133.806 45.9454 133.806 45.5273 133.388 45.6662C133.109 45.6662 130.324 46.9204 130.324 49.1481ZM124.751 42.4619C124.751 42.0438 124.474 40.7904 122.942 40.7904C121.27 40.7904 120.155 42.7404 120.155 43.855C120.155 44.2731 120.434 44.2731 120.992 44.2731C124.333 44.4127 124.751 43.9938 124.751 42.4619ZM127.121 44.83C127.121 45.1084 127.121 45.3877 126.703 45.3877H120.991C120.953 45.3877 120.906 45.3824 120.855 45.3766C120.533 45.3399 120.015 45.2808 120.015 46.3619C120.015 48.8704 121.827 50.4023 123.359 50.4023C124.523 50.499 125.35 49.9205 125.932 49.5128C126.186 49.3351 126.394 49.1899 126.563 49.1472C126.842 49.1472 126.842 49.2877 126.842 49.5653C126.842 49.9842 125.449 52.3523 122.384 52.3523C119.599 52.3523 117.37 49.7058 117.37 46.3619C117.37 42.6007 120.156 39.8154 122.663 39.9542C126.007 39.9542 127.121 43.0188 127.121 44.83ZM111.379 51.6549C111.379 51.9342 111.658 52.073 111.937 52.073L117.229 52.0738C117.646 52.0738 117.785 51.935 117.785 51.6558C117.785 51.2945 117.576 51.246 117.159 51.1494C117.094 51.1344 117.025 51.1183 116.95 51.0996C116.115 50.96 115.974 50.5419 115.974 49.5661V37.8654C115.974 36.9918 116.198 36.7888 116.345 36.6562C116.362 36.6408 116.378 36.6264 116.392 36.6119C116.532 36.577 116.689 36.5595 116.846 36.5421C117.317 36.4898 117.786 36.4376 117.786 35.9154C117.786 35.6361 117.647 35.4973 117.09 35.4973H112.354C111.937 35.4973 111.519 35.6361 111.519 36.0542C111.519 36.3327 111.937 36.4723 112.493 36.4723C112.772 36.4723 113.328 36.6111 113.328 37.168V42.1826C113.328 42.6007 113.328 43.0188 112.772 43.0188H107.758C107.2 43.0188 107.2 42.6007 107.2 42.1826V37.5861C107.2 36.8904 107.34 36.6111 108.035 36.4723C108.732 36.4723 109.011 36.3327 109.011 36.0542C109.011 35.4973 108.594 35.4973 108.315 35.4973H103.439C103.162 35.4973 102.744 35.6361 102.744 35.9154C102.744 36.3327 103.162 36.4723 103.857 36.4723C104.553 36.4723 104.694 37.0292 104.694 37.7257V49.9842C104.694 50.8188 104.277 50.9581 103.858 51.0984L103.857 51.0988C102.883 51.3757 102.603 51.5161 102.603 51.6549C102.603 51.9342 102.744 52.073 103.022 52.073H108.733C109.012 52.073 109.151 51.9334 109.151 51.6549C109.151 51.3765 108.873 51.2377 107.897 51.0988C107.619 50.9592 107.201 50.5411 107.201 49.5653V44.9688C107.201 44.1334 107.618 44.1334 108.036 44.1334H112.634C113.329 44.1334 113.329 44.83 113.329 45.3877V49.5653C113.329 50.5411 113.052 50.9584 112.634 51.0988C111.797 51.2369 111.379 51.3757 111.379 51.6549Z" fill="white"/>
</g>
</svg>
