<svg width="62" height="62" viewBox="0 0 62 62" fill="none" xmlns="http://www.w3.org/2000/svg">
<g id="icon-mop">
<mask id="mask0_448_4660" style="mask-type:alpha" maskUnits="userSpaceOnUse" x="0" y="0" width="62" height="62">
<rect id="Bounding box" width="62" height="62" fill="#D9D9D9"/>
</mask>
<g mask="url(#mask0_448_4660)">
<path id="mop" d="M28.4165 28.4168H33.5832V10.3335C33.5832 9.60155 33.3356 8.98801 32.8405 8.49287C32.3453 7.99773 31.7318 7.75016 30.9998 7.75016C30.2679 7.75016 29.6544 7.99773 29.1592 8.49287C28.6641 8.98801 28.4165 9.60155 28.4165 10.3335V28.4168ZM12.9165 38.7502H49.0832V33.5835H12.9165V38.7502ZM9.17068 54.2502H15.4998V49.0835C15.4998 48.3516 15.7474 47.738 16.2426 47.2429C16.7377 46.7477 17.3512 46.5002 18.0832 46.5002C18.8151 46.5002 19.4287 46.7477 19.9238 47.2429C20.4189 47.738 20.6665 48.3516 20.6665 49.0835V54.2502H28.4165V49.0835C28.4165 48.3516 28.6641 47.738 29.1592 47.2429C29.6544 46.7477 30.2679 46.5002 30.9998 46.5002C31.7318 46.5002 32.3453 46.7477 32.8405 47.2429C33.3356 47.738 33.5832 48.3516 33.5832 49.0835V54.2502H41.3332V49.0835C41.3332 48.3516 41.5807 47.738 42.0759 47.2429C42.571 46.7477 43.1846 46.5002 43.9165 46.5002C44.6485 46.5002 45.262 46.7477 45.7571 47.2429C46.2523 47.738 46.4998 48.3516 46.4998 49.0835V54.2502H52.829L50.2457 43.9168H11.754L9.17068 54.2502ZM52.829 59.4168H9.17068C7.49151 59.4168 6.13526 58.7495 5.10193 57.4147C4.0686 56.08 3.76721 54.5946 4.19776 52.9585L7.74985 38.7502V33.5835C7.74985 32.1627 8.25575 30.9463 9.26756 29.9345C10.2794 28.9227 11.4957 28.4168 12.9165 28.4168H23.2498V10.3335C23.2498 8.18072 24.0033 6.35086 25.5103 4.84391C27.0172 3.33697 28.8471 2.5835 30.9998 2.5835C33.1526 2.5835 34.9825 3.33697 36.4894 4.84391C37.9964 6.35086 38.7498 8.18072 38.7498 10.3335V28.4168H49.0832C50.504 28.4168 51.7203 28.9227 52.7321 29.9345C53.7439 30.9463 54.2498 32.1627 54.2498 33.5835V38.7502L57.8019 52.9585C58.3617 54.5946 58.1141 56.08 57.0592 57.4147C56.0044 58.7495 54.5943 59.4168 52.829 59.4168Z" fill="#28135D"/>
</g>
</g>
</svg>
