<svg width="41" height="42" viewBox="0 0 41 42" fill="none" xmlns="http://www.w3.org/2000/svg">
<rect y="0.5" width="41" height="41" rx="20.5" fill="#BF17A7"/>
<path d="M13.4779 23.375C13.3518 23.4383 13.2219 23.4423 13.088 23.3869C12.9541 23.3315 12.8635 23.2404 12.8163 23.1138L12.1074 21.2137C12.0286 20.9921 11.9932 20.7744 12.0011 20.5606C12.009 20.3469 12.1074 20.2004 12.2964 20.1213C12.6902 19.9629 13.0565 20.0183 13.3952 20.2875C13.7338 20.5567 13.9898 20.905 14.1631 21.3325L14.5411 22.3538C14.5884 22.4804 14.5923 22.5952 14.553 22.6981C14.5136 22.801 14.4388 22.8842 14.3285 22.9475L13.4779 23.375ZM19.385 30.5C19.1172 30.5 18.8534 30.4446 18.5934 30.3337C18.3335 30.2229 18.1169 30.0646 17.9437 29.8588L14.1158 25.4175C13.9426 25.2117 13.8638 24.9821 13.8795 24.7288C13.8953 24.4754 14.0056 24.2617 14.2103 24.0875C14.4151 23.9133 14.6435 23.8381 14.8956 23.8619C15.1476 23.8856 15.3603 23.9925 15.5335 24.1825L17.6601 26.6287C17.6601 26.5021 17.6759 26.3794 17.7074 26.2606C17.7389 26.1419 17.7861 26.0192 17.8491 25.8925L16.7622 22.7575C16.6835 22.5042 16.6992 22.2587 16.8095 22.0212C16.9198 21.7837 17.1009 21.6254 17.3529 21.5462C17.605 21.4671 17.8491 21.4829 18.0854 21.5938C18.3217 21.7046 18.4792 21.8867 18.558 22.14L19.4795 24.8H20.023V21.95C20.023 21.6808 20.1135 21.4552 20.2947 21.2731C20.4758 21.091 20.7003 21 20.9681 21C21.2359 21 21.4604 21.091 21.6415 21.2731C21.8227 21.4552 21.9133 21.6808 21.9133 21.95V24.8H22.4803L22.9765 22.6863C23.0395 22.4171 23.1774 22.2152 23.39 22.0806C23.6027 21.946 23.8429 21.9104 24.1107 21.9738C24.3785 22.0371 24.5793 22.1756 24.7132 22.3894C24.8471 22.6031 24.8826 22.8446 24.8196 23.1138L24.4415 24.8C24.5203 24.8158 24.603 24.8317 24.6896 24.8475C24.7762 24.8633 24.8589 24.8871 24.9377 24.9187L25.2921 23.9925C25.3866 23.7392 25.552 23.5571 25.7883 23.4462C26.0246 23.3354 26.2688 23.3275 26.5208 23.4225C26.7571 23.5175 26.9264 23.6837 27.0288 23.9212C27.1312 24.1587 27.1352 24.4042 27.0406 24.6575L26.1664 26.985V28.6C26.1664 29.1225 25.9813 29.5698 25.6111 29.9419C25.2409 30.314 24.7959 30.5 24.2761 30.5H19.385ZM16.5023 15.7987C16.3763 15.8146 16.2621 15.779 16.1597 15.6919C16.0573 15.6048 15.9982 15.4979 15.9825 15.3713L15.7698 13.495C15.7383 13.2258 15.8053 12.9923 15.9707 12.7944C16.1361 12.5965 16.3527 12.4817 16.6205 12.45C16.8882 12.4183 17.1206 12.4856 17.3175 12.6519C17.5144 12.8181 17.6286 13.0358 17.6601 13.305L17.8491 15.1812C17.8649 15.3079 17.8295 15.4227 17.7428 15.5256C17.6562 15.6285 17.5498 15.6879 17.4238 15.7038L16.5023 15.7987ZM17.0221 20.6438C16.8804 20.6754 16.7504 20.6517 16.6323 20.5725C16.5141 20.4933 16.4472 20.3825 16.4314 20.24L16.1479 17.77C16.1164 17.5008 16.1833 17.2673 16.3487 17.0694C16.5141 16.8715 16.7307 16.7567 16.9985 16.725C17.2663 16.6933 17.4987 16.7606 17.6956 16.9269C17.8925 17.0931 18.0067 17.3108 18.0382 17.58L18.2981 19.8837C18.3138 20.0104 18.2902 20.1213 18.2272 20.2163C18.1642 20.3112 18.0697 20.3746 17.9437 20.4062L17.0221 20.6438ZM19.5504 28.6H24.2761V26.7H19.5504V28.6ZM20.4955 20.05C20.3695 20.05 20.2593 20.0025 20.1647 19.9075C20.0702 19.8125 20.023 19.7017 20.023 19.575V17.2C20.023 16.9308 20.1135 16.7052 20.2947 16.5231C20.4758 16.341 20.7003 16.25 20.9681 16.25C21.2359 16.25 21.4604 16.341 21.6415 16.5231C21.8227 16.7052 21.9133 16.9308 21.9133 17.2V19.575C21.9133 19.7017 21.866 19.8125 21.7715 19.9075C21.677 20.0025 21.5667 20.05 21.4407 20.05H20.4955ZM20.4955 15.3C20.3695 15.3 20.2593 15.2525 20.1647 15.1575C20.0702 15.0625 20.023 14.9517 20.023 14.825V12.45C20.023 12.1808 20.1135 11.9552 20.2947 11.7731C20.4758 11.591 20.7003 11.5 20.9681 11.5C21.2359 11.5 21.4604 11.591 21.6415 11.7731C21.8227 11.9552 21.9133 12.1808 21.9133 12.45V14.825C21.9133 14.9517 21.866 15.0625 21.7715 15.1575C21.677 15.2525 21.5667 15.3 21.4407 15.3H20.4955ZM24.6305 21.1425L23.6854 20.905C23.5594 20.8733 23.4649 20.81 23.4018 20.715C23.3388 20.62 23.3152 20.5092 23.331 20.3825L23.5909 18.055C23.6224 17.7858 23.7366 17.5681 23.9335 17.4019C24.1304 17.2356 24.3627 17.1683 24.6305 17.2C24.8983 17.2317 25.1149 17.3465 25.2803 17.5444C25.4457 17.7423 25.5127 17.9758 25.4812 18.245L25.2212 20.7388C25.2055 20.8813 25.1385 20.9921 25.0204 21.0712C24.9023 21.1504 24.7723 21.1742 24.6305 21.1425ZM25.174 16.3688L24.2289 16.2737C24.1028 16.2579 23.9965 16.1985 23.9099 16.0956C23.8232 15.9927 23.7878 15.8779 23.8035 15.7512L23.9926 13.875C24.0241 13.6058 24.1383 13.3881 24.3352 13.2219C24.5321 13.0556 24.7644 12.9883 25.0322 13.02C25.3 13.0517 25.5166 13.1665 25.682 13.3644C25.8474 13.5623 25.9144 13.7958 25.8828 14.065L25.6938 15.9413C25.6781 16.0679 25.619 16.1748 25.5166 16.2619C25.4142 16.349 25.3 16.3846 25.174 16.3688ZM27.0643 22.6625L26.1428 22.3775C26.0167 22.3458 25.9262 22.2746 25.871 22.1638C25.8159 22.0529 25.8041 21.9342 25.8356 21.8075L26.19 20.4775C26.2688 20.2242 26.4184 20.0302 26.639 19.8956C26.8595 19.761 27.0958 19.7333 27.3478 19.8125C27.5999 19.8917 27.7889 20.0381 27.9149 20.2519C28.0409 20.4656 28.0724 20.6992 28.0094 20.9525L27.655 22.33C27.6235 22.4567 27.5487 22.5517 27.4305 22.615C27.3124 22.6783 27.1903 22.6942 27.0643 22.6625ZM28.0567 19.0762L27.1352 18.8387C27.0091 18.8071 26.9146 18.7319 26.8516 18.6131C26.7886 18.4944 26.7729 18.3717 26.8044 18.245L27.1115 17.1525C27.2218 16.7725 27.3557 16.4163 27.5132 16.0838C27.6707 15.7513 27.9149 15.6246 28.2457 15.7038C28.6395 15.7987 28.8758 16.06 28.9546 16.4875C29.0333 16.915 29.0097 17.3583 28.8837 17.8175L28.6238 18.7438C28.5923 18.8704 28.5214 18.9654 28.4111 19.0287C28.3008 19.0921 28.1827 19.1079 28.0567 19.0762Z" fill="#F7F9FD"/>
</svg>
