<svg width="56" height="56" viewBox="0 0 56 56" fill="none" xmlns="http://www.w3.org/2000/svg">
<g id="icon-draw">
<mask id="mask0_448_4647" style="mask-type:alpha" maskUnits="userSpaceOnUse" x="0" y="0" width="56" height="56">
<rect id="Bounding box" width="56" height="56" fill="#D9D9D9"/>
</mask>
<g mask="url(#mask0_448_4647)">
<path id="draw" d="M9.33333 49V39.0833L40.075 8.4C40.5417 7.93333 41.0667 7.58333 41.65 7.35C42.2333 7.11667 42.8167 7 43.4 7C44.0222 7 44.6153 7.11667 45.1792 7.35C45.7431 7.58333 46.2389 7.93333 46.6667 8.4L49.9333 11.6667C50.4 12.0944 50.75 12.5903 50.9833 13.1542C51.2167 13.7181 51.3333 14.3111 51.3333 14.9333C51.3333 15.5167 51.2167 16.1 50.9833 16.6833C50.75 17.2667 50.4 17.7917 49.9333 18.2583L19.25 49H9.33333ZM43.5167 18.1417L46.6667 14.9917L43.3417 11.6667L40.1917 14.8167L43.5167 18.1417ZM32.6667 49C35.5444 49 38.2083 48.2806 40.6583 46.8417C43.1083 45.4028 44.3333 43.4 44.3333 40.8333C44.3333 39.4333 43.9639 38.2278 43.225 37.2167C42.4861 36.2056 41.4944 35.3306 40.25 34.5917L36.8083 38.0333C37.7028 38.4222 38.4028 38.85 38.9083 39.3167C39.4139 39.7833 39.6667 40.2889 39.6667 40.8333C39.6667 41.7278 38.9569 42.5347 37.5375 43.2542C36.1181 43.9736 34.4944 44.3333 32.6667 44.3333C32.0056 44.3333 31.4514 44.5569 31.0042 45.0042C30.5569 45.4514 30.3333 46.0056 30.3333 46.6667C30.3333 47.3278 30.5569 47.8819 31.0042 48.3292C31.4514 48.7764 32.0056 49 32.6667 49ZM10.675 31.15L14.175 27.65C13.3972 27.3389 12.7847 27.0181 12.3375 26.6875C11.8903 26.3569 11.6667 26.0167 11.6667 25.6667C11.6667 25.2 12.0167 24.7333 12.7167 24.2667C13.4167 23.8 14.8944 23.0806 17.15 22.1083C20.5722 20.6306 22.8472 19.2889 23.975 18.0833C25.1028 16.8778 25.6667 15.5167 25.6667 14C25.6667 11.8611 24.8111 10.1597 23.1 8.89583C21.3889 7.63194 19.1333 7 16.3333 7C14.5833 7 13.0181 7.31111 11.6375 7.93333C10.2569 8.55556 9.19722 9.31389 8.45833 10.2083C8.03056 10.7139 7.85556 11.2778 7.93333 11.9C8.01111 12.5222 8.30278 13.0278 8.80833 13.4167C9.31389 13.8444 9.87778 14.0194 10.5 13.9417C11.1222 13.8639 11.6472 13.6111 12.075 13.1833C12.6194 12.6389 13.2222 12.25 13.8833 12.0167C14.5444 11.7833 15.3611 11.6667 16.3333 11.6667C17.9278 11.6667 19.1042 11.9 19.8625 12.3667C20.6208 12.8333 21 13.3778 21 14C21 14.5444 20.6597 15.0403 19.9792 15.4875C19.2986 15.9347 17.7333 16.7222 15.2833 17.85C12.1722 19.2111 10.0139 20.4458 8.80833 21.5542C7.60278 22.6625 7 24.0333 7 25.6667C7 26.9111 7.33056 27.9708 7.99167 28.8458C8.65278 29.7208 9.54722 30.4889 10.675 31.15Z" fill="white"/>
</g>
</g>
</svg>
