<svg width="70" height="70" viewBox="0 0 70 70" fill="none" xmlns="http://www.w3.org/2000/svg">
<g id="icon-airline_seat_flat">
<mask id="mask0_448_4643" style="mask-type:alpha" maskUnits="userSpaceOnUse" x="0" y="0" width="70" height="70">
<rect id="Bounding box" width="70" height="70" fill="#D9D9D9"/>
</mask>
<g mask="url(#mask0_448_4643)">
<path id="airline_seat_flat" d="M26.2499 40.8332V20.4165H52.4999C55.7082 20.4165 58.4548 21.5589 60.7395 23.8436C63.0242 26.1283 64.1666 28.8748 64.1666 32.0832V40.8332H26.2499ZM5.83325 49.5832V43.7498H64.1666V49.5832H5.83325ZM14.5833 40.8332C12.1527 40.8332 10.0867 39.9825 8.38534 38.2811C6.68395 36.5797 5.83325 34.5137 5.83325 32.0832C5.83325 29.6526 6.68395 27.5866 8.38534 25.8853C10.0867 24.1839 12.1527 23.3332 14.5833 23.3332C17.0138 23.3332 19.0798 24.1839 20.7812 25.8853C22.4826 27.5866 23.3333 29.6526 23.3333 32.0832C23.3333 34.5137 22.4826 36.5797 20.7812 38.2811C19.0798 39.9825 17.0138 40.8332 14.5833 40.8332Z" fill="white"/>
</g>
</g>
</svg>
