<svg width="70" height="70" viewBox="0 0 70 70" fill="none" xmlns="http://www.w3.org/2000/svg">
<g id="icon-local_cafe">
<mask id="mask0_448_4642" style="mask-type:alpha" maskUnits="userSpaceOnUse" x="0" y="0" width="70" height="70">
<rect id="Bounding box" width="70" height="70" fill="#D9D9D9"/>
</mask>
<g mask="url(#mask0_448_4642)">
<path id="local_cafe" d="M11.6667 61.25V55.4167H58.3334V61.25H11.6667ZM23.3334 49.5833C20.1251 49.5833 17.3786 48.441 15.0938 46.1562C12.8091 43.8715 11.6667 41.125 11.6667 37.9167V8.75H58.3334C59.9376 8.75 61.3108 9.32118 62.4532 10.4635C63.5956 11.6059 64.1667 12.9792 64.1667 14.5833V23.3333C64.1667 24.9375 63.5956 26.3108 62.4532 27.4531C61.3108 28.5955 59.9376 29.1667 58.3334 29.1667H52.5001V37.9167C52.5001 41.125 51.3577 43.8715 49.073 46.1562C46.7883 48.441 44.0417 49.5833 40.8334 49.5833H23.3334ZM23.3334 43.75H40.8334C42.4376 43.75 43.8108 43.1788 44.9532 42.0365C46.0956 40.8941 46.6667 39.5208 46.6667 37.9167V14.5833H17.5001V37.9167C17.5001 39.5208 18.0713 40.8941 19.2136 42.0365C20.356 43.1788 21.7292 43.75 23.3334 43.75ZM52.5001 23.3333H58.3334V14.5833H52.5001V23.3333ZM23.3334 43.75H17.5001H46.6667H23.3334Z" fill="#28135D"/>
</g>
</g>
</svg>
