<svg width="190" height="90" viewBox="0 0 190 90" fill="none" xmlns="http://www.w3.org/2000/svg">
<g id="icon-c-health">
<rect width="190" height="90" rx="12" fill="#EAEAEA"/>
<path id="Union" fill-rule="evenodd" clip-rule="evenodd" d="M54.6713 38.7005C53.1309 36.9172 50.7804 35.8634 48.3487 35.8634C42.9174 35.8634 39.8367 40.4027 39.8367 44.9426C39.8367 49.4006 42.9986 53.86 48.2675 53.86C50.6992 53.86 53.1309 52.725 54.6713 51.0222V57.1831C52.5637 58.0751 50.4562 58.7234 48.105 58.7234C39.9991 58.7234 34 52.3196 34 45.105C34 37.5662 39.7554 31 48.2675 31C50.5374 31 52.7262 31.5671 54.6713 32.5404V38.7005ZM73.7209 42.0243V31.243H79.0717V58.6415H73.7209V46.4011H63.8317V58.6415H58.4816V31.243H63.8317V42.0243H73.7209ZM86.5292 50.5356C86.5294 52.8061 87.4215 55.3185 90.0959 55.3185C91.7175 55.3185 92.8525 54.3466 93.5009 52.8861L98.2019 53.617C96.9857 57.183 93.8251 59.2101 90.0959 59.2101C84.5841 59.2101 81.1792 55.3192 81.1792 49.8872C81.1792 44.456 84.0163 40.1597 89.853 40.1597C95.6896 40.1597 98.2838 44.5372 98.2838 49.8872V50.5356H86.5292ZM93.5009 47.3743C93.2579 45.5097 92.1229 43.7264 90.0959 43.7264C88.0689 43.7264 86.9346 45.5104 86.6917 47.3743H93.5009ZM118.064 58.6415H113.038V57.0213H112.957C111.822 58.3986 109.958 59.2094 108.093 59.2094C102.823 59.2094 99.9054 54.4258 99.9054 49.6443C99.9054 44.8607 102.904 40.159 108.012 40.159C109.877 40.159 111.74 40.9698 113.038 42.429V40.8081H118.064V58.6415ZM113.523 49.7255C113.523 47.2931 111.903 44.6989 109.228 44.6989C106.633 44.6989 105.012 47.2931 105.012 49.7255C105.012 52.0767 106.633 54.6701 109.228 54.6701C111.903 54.6701 113.523 52.0767 113.523 49.7255ZM120.414 31.0805H125.521V58.6415H120.414V31.0805ZM134.762 58.6415H129.656V45.1043H127.953V40.8081H129.656V34.7284H134.762V40.8081H137.923V45.1043H134.762V58.6415ZM145.056 31.0805V42.2672H145.137C146.193 40.8081 147.975 40.1597 149.839 40.1597C154.623 40.1597 156 43.5646 156 47.6992V58.6422H150.893V49.1583C150.893 49.054 150.893 48.948 150.894 48.8409C150.901 46.7851 150.911 44.2949 148.138 44.2949C145.137 44.2949 145.056 47.6186 145.056 49.8067V58.6429H140.032V31.0805H145.056ZM53.2933 47.5361C54.6713 47.5361 55.8063 46.4011 55.8063 45.0238C55.803 44.3583 55.5372 43.721 55.0667 43.2503C54.5961 42.7796 53.9589 42.5137 53.2933 42.5102C51.9154 42.5102 50.7804 43.6459 50.7804 45.0238C50.7804 46.4011 51.9154 47.5361 53.2933 47.5361Z" fill="white"/>
</g>
</svg>
